<svg width="269.306" height="67.501" viewBox="0 0 269.306 67.501" xmlns="http://www.w3.org/2000/svg"><g id="svgGroup" stroke-linecap="round" fill-rule="evenodd" font-size="9pt" stroke="#1dbad1" stroke-width="0.25mm" fill="#1dbad1" style="stroke:#1dbad1;stroke-width:0.25mm;fill:#1dbad1"><path d="M 6.944 61.181 L 6.944 66.667 L 0 66.667 L 0 0 L 7.5 0 L 7.5 29.931 Q 10.278 27.361 13.889 25.903 A 20.389 20.389 0 0 1 21.597 24.444 A 19.558 19.558 0 0 1 32.049 27.326 Q 36.736 30.208 39.549 35.069 Q 42.361 39.931 42.361 45.833 Q 42.361 51.736 39.549 56.597 Q 36.736 61.458 32.049 64.34 A 19.558 19.558 0 0 1 21.597 67.222 A 19.966 19.966 0 0 1 13.542 65.59 A 21.83 21.83 0 0 1 6.944 61.181 Z M 92.083 44.861 L 92.083 47.917 L 64.861 47.917 Q 63.056 47.917 61.181 47.778 A 47.061 47.061 0 0 1 57.5 47.361 A 14.686 14.686 0 0 0 62.535 56.667 A 14.906 14.906 0 0 0 72.708 60.417 A 15.465 15.465 0 0 0 80.069 58.611 A 15.539 15.539 0 0 0 84.728 54.898 A 14.892 14.892 0 0 0 85.556 53.819 L 87.639 62.361 A 22.491 22.491 0 0 1 81.158 66.017 A 25.409 25.409 0 0 1 80.799 66.146 A 24.427 24.427 0 0 1 72.673 67.5 A 27.715 27.715 0 0 1 72.639 67.5 A 25.038 25.038 0 0 1 65.454 66.499 A 21.908 21.908 0 0 1 60.938 64.583 A 21.445 21.445 0 0 1 52.813 56.632 Q 49.861 51.597 49.861 45.417 A 21.055 21.055 0 0 1 51.599 36.851 A 20.433 20.433 0 0 1 52.708 34.687 Q 55.556 29.861 60.382 27.014 Q 65.208 24.167 71.042 24.167 A 20.872 20.872 0 0 1 81.597 26.91 A 21.087 21.087 0 0 1 89.236 34.306 Q 92.083 38.958 92.083 44.861 Z M 183.056 44.861 L 183.056 47.917 L 155.833 47.917 Q 154.028 47.917 152.153 47.778 A 47.061 47.061 0 0 1 148.472 47.361 A 14.686 14.686 0 0 0 153.507 56.667 A 14.906 14.906 0 0 0 163.681 60.417 A 15.465 15.465 0 0 0 171.042 58.611 A 15.539 15.539 0 0 0 175.7 54.898 A 14.892 14.892 0 0 0 176.528 53.819 L 178.611 62.361 A 22.491 22.491 0 0 1 172.13 66.017 A 25.409 25.409 0 0 1 171.771 66.146 A 24.427 24.427 0 0 1 163.645 67.5 A 27.715 27.715 0 0 1 163.611 67.5 A 25.038 25.038 0 0 1 156.426 66.499 A 21.908 21.908 0 0 1 151.91 64.583 A 21.445 21.445 0 0 1 143.785 56.632 Q 140.833 51.597 140.833 45.417 A 21.055 21.055 0 0 1 142.571 36.851 A 20.433 20.433 0 0 1 143.681 34.687 Q 146.528 29.861 151.354 27.014 Q 156.181 24.167 162.014 24.167 A 20.872 20.872 0 0 1 172.569 26.91 A 21.087 21.087 0 0 1 180.208 34.306 Q 183.056 38.958 183.056 44.861 Z M 219.306 66.667 L 189.167 66.667 L 208.889 31.667 L 190.417 31.667 L 190.417 25 L 220.417 25 L 200.694 60 L 219.306 60 L 219.306 66.667 Z M 262.361 30.486 L 262.361 25 L 269.306 25 L 269.306 66.667 L 262.361 66.667 L 262.361 61.181 Q 259.583 63.958 255.799 65.59 A 20.212 20.212 0 0 1 247.708 67.222 A 19.611 19.611 0 0 1 237.292 64.34 Q 232.569 61.458 229.757 56.597 Q 226.944 51.736 226.944 45.833 Q 226.944 39.931 229.757 35.069 Q 232.569 30.208 237.292 27.326 A 19.611 19.611 0 0 1 247.708 24.444 A 20.592 20.592 0 0 1 255.799 26.042 Q 259.583 27.639 262.361 30.486 Z M 109.583 66.667 L 102.083 66.667 L 102.083 0 L 109.583 0 L 109.583 66.667 Z M 130.417 66.667 L 122.917 66.667 L 122.917 0 L 130.417 0 L 130.417 66.667 Z M 20.625 60.417 A 13.483 13.483 0 0 0 27.813 58.438 A 14.775 14.775 0 0 0 32.951 53.16 Q 34.861 49.861 34.861 45.833 A 14.641 14.641 0 0 0 33.764 40.147 A 14.058 14.058 0 0 0 32.951 38.507 Q 31.042 35.208 27.813 33.229 A 13.483 13.483 0 0 0 20.625 31.25 A 13.483 13.483 0 0 0 13.437 33.229 A 14.775 14.775 0 0 0 8.299 38.507 Q 6.389 41.806 6.389 45.833 A 14.641 14.641 0 0 0 7.486 51.519 A 14.058 14.058 0 0 0 8.299 53.16 Q 10.208 56.458 13.438 58.438 A 13.483 13.483 0 0 0 20.625 60.417 Z M 248.681 60.417 A 13.483 13.483 0 0 0 255.868 58.438 A 14.775 14.775 0 0 0 261.007 53.16 Q 262.917 49.861 262.917 45.833 A 14.641 14.641 0 0 0 261.82 40.147 A 14.058 14.058 0 0 0 261.007 38.507 Q 259.097 35.208 255.868 33.229 A 13.483 13.483 0 0 0 248.681 31.25 A 13.483 13.483 0 0 0 241.493 33.229 A 14.775 14.775 0 0 0 236.354 38.507 Q 234.444 41.806 234.444 45.833 A 14.641 14.641 0 0 0 235.541 51.519 A 14.058 14.058 0 0 0 236.354 53.16 Q 238.264 56.458 241.493 58.438 A 13.483 13.483 0 0 0 248.681 60.417 Z M 64.861 41.667 L 78.681 41.667 A 43.394 43.394 0 0 1 81.701 41.771 A 144.292 144.292 0 0 1 84.722 42.014 Q 83.75 37.153 79.861 33.993 Q 75.972 30.833 71.042 30.833 A 13.025 13.025 0 0 0 62.153 34.201 A 15.371 15.371 0 0 0 58.399 39.072 A 14.677 14.677 0 0 0 57.292 42.292 Q 61.042 41.667 64.861 41.667 Z M 155.833 41.667 L 169.653 41.667 A 43.394 43.394 0 0 1 172.674 41.771 A 144.292 144.292 0 0 1 175.694 42.014 Q 174.722 37.153 170.833 33.993 Q 166.944 30.833 162.014 30.833 A 13.025 13.025 0 0 0 153.125 34.201 A 15.371 15.371 0 0 0 149.371 39.072 A 14.677 14.677 0 0 0 148.264 42.292 Q 152.014 41.667 155.833 41.667 Z" vector-effect="non-scaling-stroke"/></g></svg>