<svg width="40" height="41" viewBox="0 0 40 41" fill="none" xmlns="http://www.w3.org/2000/svg">
    <path d="M25.938 20.011c.14 0 .28.07.386.176a.565.565 0 0 1 .176.387v1.125c0 .175-.07.316-.176.422a.528.528 0 0 1-.387.14h-5.062v5.063c0 .175-.07.316-.176.422a.528.528 0 0 1-.387.14h-1.125c-.175 0-.316-.035-.421-.14-.106-.106-.141-.246-.141-.422V22.26h-5.063c-.175 0-.316-.035-.421-.14-.106-.106-.141-.246-.141-.422v-1.125c0-.14.035-.282.14-.387a.582.582 0 0 1 .422-.176h5.063V14.95c0-.14.035-.281.14-.387a.582.582 0 0 1 .422-.176h1.125c.141 0 .282.07.387.176a.565.565 0 0 1 .176.387v5.062h5.063z" fill="#676767"/>
    <circle cx="20" cy="20.886" r="19.5" stroke="#676767"/>
</svg>
