<?xml version="1.0" encoding="utf-8"?>
<!-- Generator: Adobe Illustrator 23.0.6, SVG Export Plug-In . SVG Version: 6.00 Build 0)  -->
<svg version="1.1" id="Layer_1" xmlns="http://www.w3.org/2000/svg" xmlns:xlink="http://www.w3.org/1999/xlink" x="0px" y="0px"
	 viewBox="0 0 451.6 57.9" style="enable-background:new 0 0 451.6 57.9;" xml:space="preserve">
<style type="text/css">
	.st0{fill-rule:evenodd;clip-rule:evenodd;fill:#A6A8AB;}
	.st1{fill-rule:evenodd;clip-rule:evenodd;fill:#0060A8;}
</style>
<g id="Logo">
	<rect x="36.4" y="35.8" class="st0" width="11.5" height="11.5"/>
	<rect x="13.3" y="35.8" class="st0" width="11.5" height="11.5"/>
	<path class="st0" d="M203.7,22.1h-3.8c0-2.7-0.5-4.5-1.4-5.2c-0.9-0.7-3.1-1.1-6.5-1.1c-4,0-6.6,0.4-7.8,1.1
		c-1.2,0.7-1.8,2.3-1.8,4.7c0,2.7,0.5,4.4,1.4,5c0.9,0.6,3.6,1,8.2,1.2c5.3,0.2,8.7,0.9,10.1,2c1.4,1.1,2.2,3.6,2.2,7.5
		c0,4.2-0.8,6.9-2.5,8.1c-1.7,1.2-5.3,1.8-11,1.8c-4.9,0-8.2-0.6-9.8-1.9c-1.6-1.2-2.4-3.7-2.4-7.5l0-1.5h3.8v0.8
		c0,3,0.5,4.9,1.4,5.7c0.9,0.7,3.3,1.1,7.2,1.1c4.4,0,7.1-0.4,8.2-1.1c1-0.7,1.5-2.7,1.5-5.9c0-2.1-0.3-3.5-1-4.2
		c-0.7-0.7-2.1-1.1-4.3-1.2l-4-0.2l-3.8-0.2c-5.8-0.4-8.7-3.4-8.7-9c0-3.9,0.8-6.5,2.5-7.8c1.7-1.3,5-1.9,10.1-1.9
		c5.1,0,8.4,0.6,10,1.8C202.9,15.5,203.7,18.1,203.7,22.1"/>
	<polygon class="st0" points="244,23.3 237.3,47.3 232.1,47.3 228.9,34 227.9,29.9 227.5,27.9 227,25.8 226.9,25.8 226.4,27.9 
		226,29.9 225,34 221.8,47.3 216.5,47.3 210,23.3 213.6,23.3 217,36.6 218.1,40.7 218.6,42.8 219.1,44.9 219.2,44.9 219.7,42.8 
		220.2,40.7 221.2,36.6 224.4,23.3 229.5,23.3 232.8,36.6 233.8,40.8 234.3,42.8 234.7,44.9 234.8,44.9 235.3,42.8 235.8,40.7 
		236.9,36.6 240.3,23.3 	"/>
	<path class="st0" d="M253.4,12.8v3.9h-3.6v-3.9H253.4z M253.4,23.3v24h-3.6v-24H253.4z"/>
	<path class="st0" d="M275.2,23.3v2.9H266v14.6c0,2.5,1.1,3.8,3.4,3.8c2.3,0,3.4-1.1,3.4-3.4l0-1.2l0-1.3h3.3l0,1.8
		c0,4.7-2.2,7-6.7,7c-4.6,0-6.9-2-6.9-5.9v-0.8V26.2h-3.3v-2.9h3.3v-5.7h3.5v5.7H275.2z"/>
	<polygon class="st0" points="283.1,23.5 300.4,23.5 300.4,26.9 286.1,44.4 300.4,44.4 300.4,47.3 281.9,47.3 281.9,44 296.3,26.4 
		283.1,26.4 	"/>
	<path class="st0" d="M323.5,39.8h3.6l0,0.9c0,2.5-0.8,4.2-2.3,5.2c-1.5,1-4.2,1.5-7.9,1.5c-4.4,0-7.3-0.8-8.7-2.4
		c-1.4-1.6-2.1-5-2.1-10.1c0-4.8,0.7-8,2.1-9.6c1.4-1.6,4.1-2.4,8.1-2.4c4.4,0,7.3,0.7,8.7,2.1c1.4,1.4,2.1,4.4,2.1,8.9v1.9h-17.2
		c0,3.8,0.4,6.2,1.2,7.2c0.8,1,2.7,1.6,5.7,1.6c2.8,0,4.6-0.2,5.5-0.7c0.8-0.5,1.3-1.6,1.3-3.2V39.8z M323.5,33l0-1.1
		c0-2.6-0.4-4.3-1.3-5c-0.9-0.8-2.7-1.2-5.5-1.2c-2.8,0-4.7,0.5-5.5,1.4c-0.8,0.9-1.3,2.9-1.3,6H323.5z"/>
	<path class="st0" d="M333.1,23.4h3.5l-0.3,2.7l0.1,0.1c1.4-2.2,3.7-3.4,6.9-3.4c4.4,0,6.6,2.3,6.6,6.8l0,1.6h-3.5l0.1-0.6
		c0-0.6,0.1-1.1,0.1-1.3c0-2.4-1.3-3.7-4-3.7c-3.9,0-5.9,2.4-5.9,7.2v14.3h-3.5V23.4z"/>
	<rect x="355.5" y="12.7" class="st0" width="3.6" height="34.5"/>
	<path class="st0" d="M369.4,30.1h-3.5c0-2.8,0.6-4.7,1.9-5.6c1.3-1,3.7-1.4,7.4-1.4c4,0,6.7,0.6,8.1,1.8c1.4,1.2,2.1,3.4,2.1,6.7
		v15.8h-3.5l0.3-2.6l-0.1,0c-1.3,2-4,2.9-8.1,2.9c-6,0-9.1-2.4-9.1-7.3c0-2.9,0.7-4.9,2-6c1.4-1.1,3.8-1.6,7.3-1.6
		c4.2,0,6.7,0.8,7.6,2.5l0.1,0v-2.9c0-2.7-0.4-4.5-1.1-5.3c-0.8-0.8-2.4-1.2-4.9-1.2c-4.3,0-6.5,1.2-6.5,3.6
		C369.3,29.5,369.3,29.8,369.4,30.1 M375,35.5c-2.7,0-4.4,0.3-5.2,0.8c-0.8,0.6-1.2,1.8-1.2,3.6c0,1.9,0.4,3.2,1.2,3.8
		c0.8,0.6,2.4,0.9,4.9,0.9c4.9,0,7.4-1.5,7.4-4.5c0-1.9-0.5-3.2-1.4-3.8C379.6,35.8,377.8,35.5,375,35.5z"/>
	<path class="st0" d="M391.1,23.4h3.4l-0.1,3.2l0.1,0.1c1.1-2.4,3.7-3.7,8-3.7c3.4,0,5.7,0.6,6.9,1.8c1.2,1.2,1.8,3.5,1.8,6.9v15.5
		h-3.5V32.1v-0.9c0-2.1-0.4-3.4-1.2-4.1c-0.8-0.7-2.3-1.1-4.5-1.1c-4.9,0-7.4,2.3-7.4,7v14.4h-3.5V23.4z"/>
	<path class="st0" d="M437.6,13.2v34.1h-3.5l0.2-3.1l-0.1,0c-1.1,2.3-3.7,3.5-7.7,3.5c-3.7,0-6.2-0.9-7.5-2.7c-1.3-1.8-2-5.1-2-10
		c0-4.5,0.7-7.6,2-9.3c1.4-1.7,3.8-2.6,7.3-2.6c4.4,0,7,1.1,7.8,3.4l0.1,0V13.2H437.6z M427.1,25.9c-2.6,0-4.3,0.6-5.2,1.8
		c-0.9,1.2-1.3,3.6-1.3,7.2c0,4,0.4,6.6,1.3,7.9c0.8,1.3,2.6,1.9,5.2,1.9c2.9,0,4.8-0.6,5.6-1.9c0.9-1.3,1.3-4,1.3-8.2
		c0-3.4-0.5-5.7-1.4-6.9C431.7,26.5,429.8,25.9,427.1,25.9z"/>
	<path class="st1" d="M86.5,22.7h-6.4c0-0.3-0.1-0.6-0.1-0.7c-0.2-1.9-0.6-3.2-1.3-3.6c-0.7-0.5-2.4-0.7-5-0.7
		c-3.1,0-5.1,0.3-6.1,0.9c-1,0.6-1.4,1.8-1.4,3.6c0,2.2,0.4,3.5,1.2,3.9c0.8,0.4,3.3,0.8,7.7,1c5.1,0.3,8.5,1,10,2.2
		c1.5,1.2,2.3,3.6,2.3,7.4c0,4.6-0.9,7.5-2.7,8.9c-1.8,1.3-5.7,2-11.7,2c-5.4,0-9-0.7-10.8-2c-1.8-1.3-2.7-4-2.7-8l0-1.3h6.4l0,0.7
		c0,2.4,0.4,3.9,1.3,4.4c0.8,0.5,3.1,0.8,6.9,0.8c2.9,0,4.8-0.3,5.6-0.9c0.8-0.6,1.2-2.1,1.2-4.3c0-1.7-0.3-2.8-0.9-3.3
		c-0.6-0.5-1.9-0.9-4-1l-3.6-0.2c-5.5-0.3-9-1.1-10.5-2.3c-1.5-1.2-2.3-3.8-2.3-7.7c0-4,0.9-6.7,2.7-8c1.8-1.3,5.5-2,11-2
		c5.2,0,8.7,0.6,10.5,1.8c1.8,1.2,2.7,3.6,2.7,7.2L86.5,22.7z"/>
	<path class="st1" d="M104.7,22.7c4.7,0,7.7,0.7,9.2,2.2c1.4,1.5,2.2,4.6,2.2,9.4c0,5.4-0.7,8.9-2.1,10.5c-1.4,1.7-4.4,2.5-9,2.5
		c-4.9,0-8.1-0.8-9.6-2.3c-1.5-1.5-2.2-5-2.2-10.2c0-5.1,0.7-8.4,2.2-9.9C96.7,23.5,99.8,22.7,104.7,22.7 M104.6,27.3
		c-2.4,0-3.9,0.4-4.6,1.3c-0.7,0.9-1,2.9-1,6.1c0,3.6,0.3,5.9,0.9,6.8c0.6,0.9,2.2,1.4,4.7,1.4c2.4,0,3.9-0.5,4.6-1.4
		c0.6-1,0.9-3.3,0.9-6.9c0-3.1-0.3-5.1-1-5.9C108.5,27.7,107,27.3,104.6,27.3z"/>
	<rect x="121.8" y="12.8" class="st1" width="5.8" height="34.6"/>
	<path class="st1" d="M140.3,30.2h-5.9c0-2.9,0.7-4.8,2-5.8c1.3-1,4-1.5,8-1.5c4.4,0,7.3,0.6,8.8,1.8c1.5,1.2,2.3,3.5,2.3,6.8v15.8
		h-5.8L150,44l-0.2,0c-1.1,2.4-3.7,3.6-7.7,3.6c-5.9,0-8.8-2.5-8.8-7.4c0-5,3-7.5,9-7.5c4,0,6.4,0.9,7.3,2.8h0.1v-3.9
		c0-1.9-0.3-3.1-1-3.8c-0.7-0.6-2-0.9-4.1-0.9C141.7,26.8,140.3,27.9,140.3,30.2 M144.1,36.5c-3.3,0-4.9,1.1-4.9,3.4
		c0,1.6,0.3,2.6,1,3.1c0.7,0.5,2.1,0.7,4.3,0.7c3.5,0,5.3-1.2,5.3-3.6C149.8,37.7,147.9,36.5,144.1,36.5z"/>
	<rect x="13.3" y="12.7" class="st0" width="11.5" height="11.5"/>
	<rect x="36.4" y="12.7" class="st0" width="11.5" height="11.5"/>
</g>
</svg>
