<svg width="401.6" height="84.7" viewBox="0 0 401.6 84.7" xmlns="http://www.w3.org/2000/svg"><g id="svgGroup" stroke-linecap="round" fill-rule="evenodd" font-size="9pt" stroke="#ffffff" stroke-width="0.25mm" fill="#ffffff" style="stroke:#ffffff;stroke-width:0.25mm;fill:#ffffff"><path d="M 400.9 49.1 L 400.8 48.1 A 164.237 164.237 0 0 1 400.783 48.066 C 397.481 41.367 397.385 40.08 393.091 39.919 A 32.114 32.114 0 0 0 391.9 39.9 A 16.087 16.087 0 0 0 385.776 41.189 C 382.892 42.37 379.88 44.367 376.7 47.2 C 376.1 46.8 375.8 46.3 375.8 45.8 A 0.616 0.616 0 0 1 375.825 45.653 C 375.977 45.085 376.77 43.534 376.964 43.01 A 1.109 1.109 0 0 0 377 42.9 A 31.326 31.326 0 0 0 377.243 41.904 C 378.151 37.919 379.309 30.235 379.479 26.84 A 15.102 15.102 0 0 0 379.5 26.1 L 379.5 25.1 C 379.5 24.7 380.2 24.1 380.2 23.8 L 380.4 0 C 378.9 3.5 378.2 5.8 378.1 7 L 378.1 8.6 C 375.834 13.131 374.308 15.691 372.627 17.099 A 6.804 6.804 0 0 1 372.1 17.5 C 372.191 17.681 372.281 17.863 372.297 18.044 A 0.632 0.632 0 0 1 372.3 18.1 C 372.3 18.741 370.96 20.052 370.656 20.499 A 0.46 0.46 0 0 0 370.6 20.6 A 4.354 4.354 0 0 1 370.694 20.747 C 370.831 20.972 370.9 21.152 370.9 21.4 A 1.265 1.265 0 0 1 370.866 21.669 C 370.717 22.342 370.116 23.339 369.94 23.783 A 0.963 0.963 0 0 0 369.9 23.9 C 370.073 24.073 370.171 24.246 370.195 24.484 A 1.189 1.189 0 0 1 370.2 24.6 A 1.162 1.162 0 0 1 369.925 25.29 C 369.66 25.64 369.3 25.91 369.3 26.1 A 11.654 11.654 0 0 0 369.029 27.164 C 368.178 31.027 366.476 42.106 363.87 48.026 A 14.878 14.878 0 0 1 362.9 49.9 C 362.071 51.257 361.469 52.387 361.18 53.246 A 3.693 3.693 0 0 0 361 54 L 360.4 54.6 A 2.322 2.322 0 0 0 360.287 55.037 C 360.164 55.724 360.102 56.964 360.1 58.806 A 84.953 84.953 0 0 0 360.1 58.9 A 1.438 1.438 0 0 1 359.974 59.387 C 359.233 61.238 355.447 66.243 354.873 68.5 A 2.071 2.071 0 0 0 354.8 69 L 354.8 71.7 C 354.8 72.2 355.2 72.9 356.1 73.6 A 0.099 0.099 0 0 0 356.041 73.623 C 355.96 73.683 355.88 73.859 355.8 74.1 A 32.256 32.256 0 0 0 356.861 74.916 C 358.3 75.972 359.331 76.5 359.9 76.5 C 360.385 76.5 360.965 76.029 361.638 75.087 A 10.544 10.544 0 0 0 361.7 75 A 25.794 25.794 0 0 0 361.698 74.645 C 361.695 74.422 361.686 74.23 361.657 74.083 A 0.719 0.719 0 0 0 361.6 73.9 A 40.86 40.86 0 0 1 365.028 68.64 C 366.053 67.267 367.142 65.895 368.28 64.376 A 83.122 83.122 0 0 0 370 62 C 370.1 61.6 370.2 61.4 370.2 61.2 C 370.2 61.108 370.116 61.016 370.102 61.002 A 0.14 0.14 0 0 0 370.1 61 A 96.999 96.999 0 0 1 370.784 59.314 C 374.035 51.537 374.493 54.281 381.909 49.118 A 50.708 50.708 0 0 0 382.5 48.7 C 386.008 47.373 388.348 46.674 390.627 46.606 A 12.369 12.369 0 0 1 391 46.6 A 0.796 0.796 0 0 1 391.158 46.62 C 391.625 46.718 392.532 47.147 392.933 47.196 A 0.561 0.561 0 0 0 393 47.2 C 393.4 47.2 394.2 46.9 394.5 46.9 C 394.409 46.809 394.401 46.637 394.4 46.531 A 3.989 3.989 0 0 1 394.4 46.5 A 1.701 1.701 0 0 1 394.4 46.467 C 394.401 46.403 394.411 46.4 394.488 46.4 A 6.453 6.453 0 0 1 394.5 46.4 L 394 46.1 A 1.353 1.353 0 0 1 394.071 46.067 C 394.227 46 394.325 46 394.5 46 C 394.796 46 394.994 46.291 394.904 46.3 A 0.044 0.044 0 0 1 394.9 46.3 A 0.074 0.074 0 0 0 394.943 46.283 C 395.024 46.224 395.105 46.024 395.186 46.002 A 0.054 0.054 0 0 1 395.2 46 L 395.2 46.2 C 395.2 46.272 395.148 46.397 395.081 46.536 A 11.603 11.603 0 0 1 395 46.7 L 394.8 47.1 A 1.196 1.196 0 0 1 395.006 47.117 C 395.143 47.141 395.249 47.187 395.326 47.24 A 0.51 0.51 0 0 1 395.4 47.3 L 395.8 48.2 C 395.879 48.437 395.958 48.674 395.988 48.862 A 0.896 0.896 0 0 1 396 49 A 0.168 0.168 0 0 1 395.97 49.082 C 395.898 49.202 395.691 49.409 395.3 49.8 C 394.2 55.5 387.8 61.7 384 65.1 A 41.023 41.023 0 0 1 383.489 65.762 C 380.351 69.744 377.213 72.21 375.64 73.394 A 82.299 82.299 0 0 1 375.5 73.5 A 23.356 23.356 0 0 1 372.014 75.751 C 369.749 76.927 367.559 77.5 365.5 77.5 A 1.611 1.611 0 0 0 364.759 77.718 C 364.428 77.892 364.11 78.129 363.798 78.273 A 1.2 1.2 0 0 1 363.3 78.4 C 362.7 78.4 360.9 77.4 360.4 77.4 A 19.278 19.278 0 0 1 361.051 78.392 C 361.419 78.993 361.701 79.536 361.898 79.995 A 8.186 8.186 0 0 1 361.9 80 C 363 80.1 364.8 82.7 364.9 82.7 L 367.2 83 C 368.06 83.096 368.645 83.191 369.045 83.199 A 2.627 2.627 0 0 0 369.1 83.2 A 1.401 1.401 0 0 0 369.41 83.162 C 370.057 83.014 370.817 82.476 371.087 82.213 A 1.367 1.367 0 0 0 371.1 82.2 C 373.9 81.8 375.9 80.1 377 79.6 C 380.5 77.2 382.4 75.9 382.9 75.6 A 29.417 29.417 0 0 0 382.897 75.07 C 382.89 74.707 382.869 74.406 382.8 74.2 C 384.3 72.9 385.9 71.7 387.6 70.7 C 391.163 67.137 394.806 63.414 395.7 62.574 A 1.71 1.71 0 0 1 395.9 62.4 A 0.542 0.542 0 0 1 395.951 62.192 C 396.17 61.683 397.016 60.913 397.094 60.463 A 0.371 0.371 0 0 0 397.1 60.4 A 0.734 0.734 0 0 0 397.095 60.297 C 397.088 60.247 397.069 60.209 397.02 60.201 A 0.127 0.127 0 0 0 397 60.2 A 1.69 1.69 0 0 0 397.127 60.064 C 397.152 60.032 397.172 60.001 397.185 59.969 A 0.183 0.183 0 0 0 397.2 59.9 C 397.2 59.7 396.8 59.2 396.8 58.9 L 397.5 58.7 L 397.1 59.1 L 397.4 59.6 A 42.596 42.596 0 0 0 397.405 59.592 C 397.723 59.034 397.914 58.668 398.029 58.493 A 0.621 0.621 0 0 1 398.1 58.4 A 22.934 22.934 0 0 1 398.17 58.471 C 398.273 58.574 398.341 58.648 398.375 58.711 A 0.187 0.187 0 0 1 398.4 58.8 A 0.586 0.586 0 0 0 398.456 58.735 C 398.534 58.629 398.6 58.481 398.6 58.4 C 398.6 58.144 398.527 57.961 398.319 57.85 A 0.78 0.78 0 0 0 398.2 57.8 A 1.701 1.701 0 0 0 398.233 57.8 C 398.297 57.799 398.3 57.789 398.3 57.712 A 6.453 6.453 0 0 0 398.3 57.7 L 397.5 57.7 C 397.5 57.518 397.583 57.335 397.598 57.304 A 0.301 0.301 0 0 1 397.6 57.3 A 0.107 0.107 0 0 1 397.654 57.317 C 397.724 57.359 397.795 57.464 397.865 57.493 A 0.091 0.091 0 0 0 397.9 57.5 C 398.064 57.5 398.361 56.43 398.902 55.876 A 1.116 1.116 0 0 1 399.3 55.6 C 398.8 55.6 398.453 55.651 398.187 55.717 A 3.647 3.647 0 0 0 397.9 55.8 L 399 55 A 6.317 6.317 0 0 0 399.103 54.93 C 399.323 54.777 399.4 54.7 399.4 54.7 L 399.1 55 A 2.409 2.409 0 0 1 399.4 55.012 C 399.478 55.022 399.556 55.04 399.634 55.071 A 0.835 0.835 0 0 1 399.7 55.1 A 0.374 0.374 0 0 0 399.831 55.08 C 399.919 55.047 399.972 54.971 399.992 54.833 A 0.965 0.965 0 0 0 400 54.7 L 400 53.6 A 22.934 22.934 0 0 1 400.07 53.671 C 400.173 53.774 400.241 53.848 400.275 53.911 A 0.187 0.187 0 0 1 400.3 54 A 1.688 1.688 0 0 0 400.204 53.43 A 1.693 1.693 0 0 0 399.8 52.8 A 21.015 21.015 0 0 0 400.041 52.732 C 401.6 52.278 401.6 52.03 401.6 50.6 A 6.255 6.255 0 0 0 401.592 50.278 C 401.528 49.041 401.085 49.285 400.9 49.1 Z M 38.4 14.9 L 37.2 15.2 L 36.6 15.3 L 36.4 15.9 L 36.1 15.9 L 35.1 18.7 L 32.5 24.7 L 31.1 29.1 L 31.2 29.3 L 30.8 29.7 L 30.6 30.7 L 28.5 37 L 27.3 42 L 25.2 42.3 L 23.7 42.3 L 19.6 43.2 L 14.7 43.2 L 15.2 42.3 L 15.3 40.9 L 15.8 40.5 L 16.4 38.2 L 17.9 33.1 L 18.3 30.1 L 18.5 27.3 L 18.9 26.7 L 18.7 26.4 L 19.2 22.6 L 18.1 18.5 L 17.5 18.3 L 17.5 18.1 L 15.7 17.4 L 14.4 17.5 L 14.1 17.7 L 13.6 17.7 L 13.3 18 L 12.9 18 L 12.5 18.9 L 12.1 19.3 L 10.8 22.1 L 9.5 25.1 L 8.5 27 L 7 31.6 L 6.9 32.7 L 5.7 35.4 L 4.2 40.2 L 1.7 53.5 L 0.9 59.8 L 0.5 61.1 L 0.6 62 L 0 69.1 L 0 73.8 L 0.1 74.9 L 0.5 76.5 L 0.7 79 L 0.9 80.2 L 3 78.4 L 3.1 78.2 L 3.4 77.8 L 3.7 76.6 L 4.2 75.8 L 4.3 75.1 L 4.7 74.6 L 4.9 72.5 L 6.1 69.9 L 7.5 66.9 L 8.9 63.4 L 9.3 61.7 L 9.9 60.3 L 10.1 59 L 11.1 57 L 11.4 56.3 L 11.6 55.1 L 12 54.4 L 12.7 51.4 L 13.6 51.1 L 16.2 50.8 L 20.9 49.6 L 23.4 49.6 L 25.6 49.3 L 24.4 56.8 L 23.6 64.5 L 23.6 69 L 24.3 74.2 L 24.8 76.5 L 25.4 77.6 L 26.1 78.3 L 27.3 78.1 L 27.7 77.6 L 27.8 77.2 L 28.3 77 L 28.3 76.7 L 28.6 76.6 L 29.1 76.9 L 29.3 76.2 L 29.7 76.4 L 30.6 75.6 L 30.9 75.6 L 31 75.1 L 30.8 74.8 L 31 74 L 31.4 73.8 L 31.4 72.1 L 31.7 71.4 L 31.7 70.2 L 31.6 70.2 L 31.9 67.9 L 31.7 67 L 32.3 65.8 L 32.3 63.9 L 32.5 62.5 L 33.1 60.9 L 33.6 57.7 L 34.1 55.3 L 35.3 52.9 L 35.9 50.6 L 36.7 49.8 L 36.7 48.8 L 37.9 47.7 L 40.4 47.4 L 41.7 47.4 L 42.5 46.6 L 44 46 L 44.4 45.6 L 45.2 45.5 L 45.4 44.7 L 44.1 44.3 L 42.5 43.7 L 38.8 42.8 L 38.7 42.7 L 39.2 41.7 L 40.1 38.1 L 41.3 32.9 L 41.7 31 L 43.1 20.1 L 42.7 16.9 L 42.5 16.1 L 40.8 14.9 L 39.4 15.3 L 38.4 14.9 Z M 216.8 69.7 L 217.1 69.7 L 217.1 69.4 C 217.2 69.3 217.2 69.3 217.3 69.2 L 218.1 69 L 219.2 67.5 L 220.6 64.5 L 221.2 63.7 L 221.2 62.9 L 222.4 60.7 L 222.6 59.8 L 225.3 54.5 A 76.009 76.009 0 0 1 225.806 53.786 C 226.294 53.106 226.725 52.525 227.1 52 A 7.032 7.032 0 0 1 227.566 51.482 C 228.127 50.921 228.596 50.685 228.973 50.62 A 1.334 1.334 0 0 1 229.2 50.6 C 229.5 50.6 230.1 50.5 230.2 51.1 A 0.417 0.417 0 0 1 230.208 51.182 C 230.208 51.597 229.675 52.242 229.422 53.025 A 2.649 2.649 0 0 0 229.3 53.6 A 26.246 26.246 0 0 1 229.291 54.291 C 229.274 54.944 229.237 55.488 229.216 55.976 A 14.496 14.496 0 0 0 229.2 56.6 L 229.1 55.2 L 229.1 58.2 L 228.8 58.6 L 228.9 59.4 L 228.1 61.4 L 228.6 61.7 L 228.6 67.2 L 228.8 68.6 L 228.6 69.1 L 229 70.3 A 2.033 2.033 0 0 0 228.954 70.459 C 228.912 70.628 228.903 70.772 228.901 70.94 A 12.414 12.414 0 0 0 228.9 71.1 A 5.252 5.252 0 0 0 228.887 71.474 C 228.887 72.766 229.327 74.133 229.6 75.5 A 11.246 11.246 0 0 0 230.51 77.679 C 230.878 78.37 231.316 79.073 231.8 79.8 A 30.353 30.353 0 0 1 231.809 79.815 C 232.704 81.309 233.303 82.602 234.3 83.3 C 235.2 84.1 236.3 84.7 237.3 84.7 C 237.633 84.7 238.175 84.561 238.809 84.457 A 10.276 10.276 0 0 1 239.2 84.4 A 31.177 31.177 0 0 0 239.836 84.233 C 240.39 84.082 241.012 83.901 241.678 83.716 A 86.419 86.419 0 0 1 242.1 83.6 C 243.079 83.306 243.387 83.013 244.15 82.719 A 6.184 6.184 0 0 1 244.2 82.7 C 244.956 82.322 245.087 82.658 245.689 82.275 A 2.496 2.496 0 0 0 245.8 82.2 A 34.838 34.838 0 0 1 246.108 81.972 C 247.009 81.311 247.112 81.316 248.195 80.504 A 36.676 36.676 0 0 0 248.2 80.5 A 9.998 9.998 0 0 0 248.503 80.264 C 249.314 79.606 249.317 79.352 250.188 78.663 A 10.599 10.599 0 0 1 250.4 78.5 C 251.256 77.8 251.688 77.281 252.12 76.756 A 28.858 28.858 0 0 1 252.5 76.3 A 2.033 2.033 0 0 0 252.721 75.988 C 253.052 75.411 253.021 74.798 253.085 74.302 A 2.844 2.844 0 0 1 253.1 74.2 A 0.336 0.336 0 0 1 253.084 74.104 C 253.074 73.803 253.38 73.38 253.2 73.2 C 253.024 73.112 252.617 73.565 252.249 73.676 A 0.518 0.518 0 0 1 252.1 73.7 A 0.964 0.964 0 0 1 251.797 73.642 C 251.363 73.497 250.864 73.139 250.3 73.3 C 249.622 73.494 249.507 73.875 248.592 74.171 A 4.42 4.42 0 0 1 248.5 74.2 A 4.219 4.219 0 0 1 247.812 74.361 C 247.292 74.442 246.772 74.451 246.323 74.515 A 3.132 3.132 0 0 0 245.9 74.6 A 2.725 2.725 0 0 0 245.02 74.936 C 244.683 75.117 244.376 75.3 244.1 75.3 C 243.2 75.3 243.6 74.4 242.9 73.9 C 242.323 73.488 241.882 72.736 241.465 71.925 A 52.485 52.485 0 0 1 241.2 71.4 A 0.263 0.263 0 0 1 241.182 71.342 C 241.114 71.024 241.082 69.725 240.826 68.004 A 26.583 26.583 0 0 0 240.6 66.7 A 115.357 115.357 0 0 1 240.083 64.529 C 239.672 62.738 239.275 60.885 238.926 59.408 A 82.449 82.449 0 0 0 238.9 59.3 A 24.011 24.011 0 0 0 238.486 57.884 C 238.143 56.8 237.8 55.75 237.8 54.7 A 5.953 5.953 0 0 1 237.787 54.304 C 237.787 53.323 238.018 52.387 238.25 51.494 A 38.576 38.576 0 0 0 238.5 50.5 C 239.3 46.9 239.2 46.9 240.1 43.4 A 89.136 89.136 0 0 0 240.326 42.477 C 240.972 39.769 240.884 39.472 241.7 36.3 A 0.681 0.681 0 0 0 241.713 36.166 C 241.713 35.742 241.339 35.318 241.141 34.894 A 1.789 1.789 0 0 1 241.1 34.8 A 2.151 2.151 0 0 1 241.022 34.56 C 240.893 34.079 240.855 33.5 240.6 33.5 C 239.7 33.5 238.6 34 237.4 34.9 C 236.2 35.8 234.9 37.4 233.2 39.2 A 5.512 5.512 0 0 1 233.168 39.236 C 232.461 40.03 231.179 41.026 229.8 42.7 A 14.32 14.32 0 0 0 229.129 43.59 C 227.989 45.218 226.875 47.339 225.2 49.6 A 289.134 289.134 0 0 1 224.133 50.873 C 223.44 51.695 222.833 52.404 222.327 52.986 A 89.469 89.469 0 0 1 221.7 53.7 A 10.345 10.345 0 0 1 221.217 54.154 C 220.555 54.736 220.063 55 219.9 55 A 0.36 0.36 0 0 1 219.755 54.974 C 219.527 54.875 219.6 54.483 219.6 53.8 A 2.33 2.33 0 0 0 219.561 53.413 C 219.419 52.587 218.958 51.367 219.3 50 A 16.361 16.361 0 0 1 219.413 49.412 C 219.743 47.851 220.08 47.618 220.48 46.015 A 17.4 17.4 0 0 0 220.6 45.5 A 66.633 66.633 0 0 1 220.728 44.947 C 221.079 43.46 221.216 43.147 221.564 41.612 A 69.912 69.912 0 0 0 221.7 41 A 8.685 8.685 0 0 0 221.755 40.372 C 221.822 39.081 221.586 38.078 221.5 37.3 C 221.4 36.5 221.4 35.8 220.9 35.8 A 1.462 1.462 0 0 0 220.174 36.024 C 219.707 36.293 219.225 36.775 218.7 37.3 C 218.002 37.998 217.456 39.229 216.73 40.595 A 28.873 28.873 0 0 1 216.4 41.2 A 48.004 48.004 0 0 0 215.659 42.544 C 215.43 42.978 215.215 43.4 215.007 43.822 A 58.222 58.222 0 0 0 214.4 45.1 C 213.925 46.334 212.91 47.298 212.552 48.504 A 3.266 3.266 0 0 0 212.5 48.7 A 1.773 1.773 0 0 0 212.452 49.131 C 212.452 49.696 212.648 50.332 212.648 50.983 A 2.627 2.627 0 0 1 212.6 51.5 A 48.817 48.817 0 0 1 212.407 52.401 C 212.242 53.15 212.071 53.95 212 54.8 C 211.7 56.6 210.6 57.8 210.4 58.8 A 8.949 8.949 0 0 0 210.371 59.161 C 210.327 59.912 210.39 60.448 210.399 60.659 A 0.999 0.999 0 0 1 210.4 60.7 A 121.308 121.308 0 0 0 209.711 64.194 C 209.463 65.542 209.247 66.791 209.033 67.927 A 96.729 96.729 0 0 1 209 68.1 C 208.5 70.2 207.9 71.8 207.6 73.3 A 0.998 0.998 0 0 0 207.571 73.543 C 207.571 74.296 208.32 75.179 208.5 75.9 C 208.685 76.641 208.699 77.039 209.097 77.093 A 0.756 0.756 0 0 0 209.2 77.1 A 3.558 3.558 0 0 0 210.312 76.927 C 210.927 76.728 211.608 76.331 212.4 75.6 A 15.21 15.21 0 0 0 213.654 74.15 C 214.364 73.232 215.118 72.12 215.99 70.814 A 811.553 811.553 0 0 0 216.4 70.2 A 0.162 0.162 0 0 1 216.423 70.128 C 216.454 70.07 216.513 69.998 216.586 69.919 A 8.159 8.159 0 0 1 216.8 69.7 Z M 150.2 29.6 L 149.7 29.3 L 149 29.6 L 148.8 29.6 A 6.642 6.642 0 0 0 147.949 29.808 C 144.949 30.718 138.866 33.934 137.722 34.685 A 3.956 3.956 0 0 0 137.7 34.7 C 136.42 35.488 131.265 38.504 129.101 39.456 A 11.246 11.246 0 0 1 129 39.5 A 65.105 65.105 0 0 0 125.674 41.197 C 115.821 46.56 104.597 55.306 103.923 55.306 A 0.038 0.038 0 0 1 103.9 55.3 L 106.4 39.4 L 106.1 33 L 105.5 32.2 L 105.4 31.7 L 104.6 31.1 L 102.9 30.8 L 102.3 31 L 101.7 30.8 L 100.8 31.1 A 92.26 92.26 0 0 1 100.552 30.922 C 100.086 30.587 99.794 30.37 99.719 30.314 A 10.567 10.567 0 0 1 99.7 30.3 A 0.66 0.66 0 0 0 99.464 30.561 C 99.136 31.113 98.783 32.43 98.3 34.2 L 98 34.5 L 96.3 40.6 L 95.4 46 L 93.8 53.7 L 93.4 62.6 L 93.8 65.2 A 129.823 129.823 0 0 0 93.861 69.09 C 93.995 73.521 94.3 77 94.3 77 A 0.026 0.026 0 0 1 94.304 76.992 C 94.327 76.958 94.488 76.924 95.326 79.657 A 79.466 79.466 0 0 1 95.4 79.9 C 95.584 80.636 96.951 81.54 97.17 81.681 A 2.99 2.99 0 0 0 97.2 81.7 A 2.364 2.364 0 0 0 97.209 81.701 C 97.319 81.719 98.43 81.895 99 81.8 A 0.572 0.572 0 0 0 99.243 81.626 C 99.617 81.201 99.771 80.208 99.796 80.028 A 2.124 2.124 0 0 0 99.8 80 C 99.8 80 99.397 79.275 99.604 78.838 A 0.486 0.486 0 0 1 99.7 78.7 A 3.74 3.74 0 0 1 99.822 78.531 C 100.457 77.691 102.717 75.047 103.057 74.65 A 102.418 102.418 0 0 1 103.1 74.6 C 103.1 74.6 103.574 73.178 104.522 72.088 A 5.313 5.313 0 0 1 104.6 72 C 105.86 70.74 108.578 68.265 111.296 65.96 A 137.501 137.501 0 0 1 112.2 65.2 L 114.7 63.4 L 117.6 61.3 L 129.4 49.7 L 129.4 49.4 L 131.5 47.8 L 131.5 47.2 L 133.1 46 L 135.1 44.2 C 137.568 42.281 142.458 38.356 143.281 37.695 A 491.891 491.891 0 0 0 143.4 37.6 L 144 36.4 L 145.5 35.5 L 145.7 35 L 145.5 34.5 L 146.2 34.1 L 146.9 33.8 L 146.7 33.7 L 146.8 33.7 L 146.3 33.4 L 146.1 33.5 L 145.7 33.4 L 145.8 33.3 L 147.3 32.6 L 147.1 32.5 L 148.9 31.4 L 149.1 30.9 L 148.9 30.4 L 150.2 29.6 Z M 351.9 62.2 L 352.9 56.5 A 218.763 218.763 0 0 0 353.206 54.782 C 353.549 52.803 353.744 51.479 353.789 50.844 A 3.505 3.505 0 0 0 353.8 50.6 C 353.8 49.949 353.021 47.479 352.59 46.817 A 0.734 0.734 0 0 0 352.5 46.7 C 352.406 46.794 352.136 46.888 351.772 46.899 A 2.362 2.362 0 0 1 351.7 46.9 C 350.847 46.9 347.929 44.385 347.285 44.122 A 0.245 0.245 0 0 0 347.2 44.1 C 346.846 44.1 346.102 44.334 345.658 44.389 A 1.327 1.327 0 0 1 345.5 44.4 L 338.4 61.1 A 178.713 178.713 0 0 0 337.946 62.165 C 336.993 64.402 336.133 66.251 333.553 68.003 A 15.636 15.636 0 0 1 332.6 68.6 A 1192.942 1192.942 0 0 0 331.809 69.021 C 330.886 69.514 330.21 69.896 329.782 70.306 A 2.357 2.357 0 0 0 329.6 70.5 L 329 70.5 C 328.9 70.2 326.6 69.4 326.6 69 A 12.555 12.555 0 0 1 326.814 66.796 C 327.633 62.233 330.545 57.121 330.953 55.586 A 1.18 1.18 0 0 0 331 55.3 A 2.287 2.287 0 0 0 330.873 54.625 A 12.572 12.572 0 0 0 330.8 54.4 A 2.811 2.811 0 0 1 331.132 54.212 C 331.311 54.125 331.475 54.063 331.6 54 C 332.8 50.7 333.8 48.2 334.6 46.6 A 7.382 7.382 0 0 0 334.473 45.743 C 334.357 45.198 334.193 44.756 334.02 44.416 A 3.639 3.639 0 0 0 333.9 44.2 A 108.745 108.745 0 0 1 333.901 44.179 C 334.001 42.392 334.1 41.399 334.1 41.1 A 1.018 1.018 0 0 1 334.122 40.917 C 334.247 40.275 334.857 38.715 334.979 38.077 A 1 1 0 0 0 335 37.9 C 335 36.58 334.115 34.442 333.075 33.735 A 1.21 1.21 0 0 0 332.4 33.5 A 0.682 0.682 0 0 0 332.005 33.667 C 330.491 34.819 327.9 41.569 327.9 42.3 A 36.402 36.402 0 0 0 326.849 43.899 C 324.853 47.125 324.623 48.761 324.09 49.379 A 0.818 0.818 0 0 1 323.8 49.6 C 322.302 54.468 321.593 55.48 320.36 56.492 A 15.721 15.721 0 0 1 320.1 56.7 A 25.064 25.064 0 0 0 318.952 60.673 C 318.246 64.157 318.367 67.189 318.395 69.291 A 45.71 45.71 0 0 1 318.4 69.9 C 318.4 71.476 323.637 75.864 324.943 78.194 A 4.058 4.058 0 0 1 325 78.3 A 47.363 47.363 0 0 0 326.502 78.797 C 327.901 79.231 328.948 79.465 329.643 79.496 A 3.453 3.453 0 0 0 329.8 79.5 A 0.622 0.622 0 0 0 329.909 79.472 C 330.739 79.216 335.835 77.288 336.685 76.948 A 2.399 2.399 0 0 0 336.8 76.9 A 14.047 14.047 0 0 0 338.302 75.279 C 339.831 73.39 341.676 70.481 343.806 66.585 A 141.407 141.407 0 0 0 344.5 65.3 C 344.8 64.9 345.1 64.7 345.4 64.7 A 0.373 0.373 0 0 1 345.61 64.802 C 346.376 65.416 348.096 68.619 349 68.8 A 44.042 44.042 0 0 0 350.717 69.246 C 352.264 69.612 353.435 69.784 354.194 69.799 A 5.392 5.392 0 0 0 354.3 69.8 C 357.2 69.8 358.4 64.8 358.4 65.4 A 8.464 8.464 0 0 0 358.321 64.308 C 358.236 63.661 358.088 62.95 357.9 62.2 C 355.331 63.056 353.935 63.546 353.587 63.732 A 0.159 0.159 0 0 0 353.5 63.8 C 352.6 63.8 352.102 63.466 351.95 62.742 A 2.65 2.65 0 0 1 351.9 62.2 Z M 322.5 31.3 L 322.2 30.6 A 3.185 3.185 0 0 1 322.2 30.558 C 322.201 30.468 322.209 30.336 322.265 30.245 A 0.239 0.239 0 0 1 322.3 30.2 C 320.5 22.3 317.3 21.9 312.3 19 A 63.439 63.439 0 0 0 310.912 18.468 C 307.763 17.307 306.714 17.267 305.664 17.156 A 12.497 12.497 0 0 1 305.2 17.1 A 218.078 218.078 0 0 1 304.785 17.1 C 303.622 17.098 301.741 17.079 300.975 16.917 A 2.093 2.093 0 0 1 300.9 16.9 A 5.567 5.567 0 0 0 300.302 16.869 C 296.596 16.869 291.253 20.142 290.4 20.9 A 9.382 9.382 0 0 0 289.527 21.489 C 288.618 22.184 288.156 22.853 288 23.4 A 3.977 3.977 0 0 0 288.204 24.092 C 288.294 24.314 288.397 24.497 288.5 24.6 L 288.4 24.9 C 288.306 25.277 288.389 25.742 288.483 26.463 A 29.722 29.722 0 0 1 288.5 26.6 L 288.6 28 C 288.699 28.296 288.603 28.787 288.696 29.088 A 0.611 0.611 0 0 0 288.7 29.1 C 288.4 31.9 286.9 36.2 286.7 36.6 A 379.181 379.181 0 0 0 285.774 40.568 C 283.742 49.474 281.42 60.829 280.445 66.278 A 131.863 131.863 0 0 0 280.3 67.1 C 280.062 72.887 279.51 76.914 280.886 79.431 A 4.76 4.76 0 0 0 282.4 81.1 C 283.329 81.286 284.95 79.831 285.495 78.581 A 2.663 2.663 0 0 0 285.6 78.3 L 285.8 78.3 A 0.295 0.295 0 0 0 285.83 78.26 C 285.976 78.044 286.437 77.14 286.575 77.014 A 0.045 0.045 0 0 1 286.6 77 A 332.285 332.285 0 0 0 287.356 75.022 C 287.703 74.114 288.043 73.243 288.406 72.427 A 25.553 25.553 0 0 1 288.6 72 L 288.9 71.3 C 291.5 63.2 290.6 65.1 291.4 62.6 A 12.526 12.526 0 0 0 291.963 60.6 A 41.787 41.787 0 0 0 292.3 58.6 A 0.568 0.568 0 0 0 292.375 58.605 C 293.906 58.605 298.325 53.047 298.679 52.533 A 0.348 0.348 0 0 0 298.7 52.5 L 299.4 52.6 C 305 50.6 306.5 50 308.1 48.8 L 309.4 48.2 C 313.6 45.6 315.9 43.7 316.8 42.9 L 317.2 42.4 A 27.053 27.053 0 0 0 318.846 40.868 C 322.339 37.32 322.142 35.183 322.396 34.406 A 0.616 0.616 0 0 1 322.5 34.2 A 1.349 1.349 0 0 1 322.457 34.105 C 322.426 34.031 322.412 33.972 322.406 33.922 A 0.901 0.901 0 0 1 322.4 33.8 A 15.34 15.34 0 0 0 322.491 33.308 C 322.543 32.994 322.585 32.668 322.597 32.367 A 4.214 4.214 0 0 0 322.6 32.2 C 322.6 31.8 322.5 31.6 322.5 31.3 Z M 78.8 79.7 L 80.1 71.4 A 96.979 96.979 0 0 1 80.552 68.756 C 81.006 66.319 81.475 64.5 82 63.3 A 47.777 47.777 0 0 0 83.09 60.34 C 84.62 55.782 85.793 50.807 87.1 49.5 L 87.5 46.3 A 0.853 0.853 0 0 1 87.523 46.121 C 87.655 45.526 88.3 44.369 88.3 44.1 A 2.94 2.94 0 0 0 87.553 42.261 C 86.298 40.719 83.898 39.755 83.898 39.797 A 0.005 0.005 0 0 0 83.9 39.8 A 23.306 23.306 0 0 1 82.785 39.465 C 78.939 38.2 79.607 37.1 77.4 37.1 A 18.581 18.581 0 0 0 76.34 36.113 C 75.589 35.471 74.923 35.04 74.319 34.807 A 2.829 2.829 0 0 0 73.3 34.6 C 70.051 34.6 66.113 38.822 61.166 45.345 A 202.2 202.2 0 0 0 60 46.9 A 21.432 21.432 0 0 0 58.916 47.909 C 56.234 50.595 56.452 52.035 54.489 53.533 A 7.31 7.31 0 0 1 54.4 53.6 A 592.512 592.512 0 0 1 54.35 53.679 C 48.799 62.399 48.599 62.208 48.2 64.7 A 19.639 19.639 0 0 1 47.411 65.45 C 46.818 65.98 46.287 66.371 45.795 66.624 A 3.737 3.737 0 0 1 45.4 66.8 C 44.7 69.3 44.4 71 44.4 72.1 A 7.097 7.097 0 0 0 44.539 73.534 C 45.063 76.088 46.938 77.296 47.94 80.196 A 10.384 10.384 0 0 1 48.1 80.7 C 48.9 83.3 51.8 84.6 52 84.6 A 4.36 4.36 0 0 0 54.565 83.731 C 54.979 83.439 55.385 83.076 55.79 82.644 A 11.878 11.878 0 0 0 56.1 82.3 A 348.095 348.095 0 0 0 57.786 81.427 C 62.608 78.912 64.37 77.776 65.15 76.21 A 4.683 4.683 0 0 0 65.4 75.6 C 71.9 70.1 73.1 68.1 74.2 68.1 C 74.489 68.1 74.778 68.286 75.067 68.657 A 3.017 3.017 0 0 1 75.1 68.7 C 74.727 69.725 74.442 71.444 74.404 74.018 A 40.061 40.061 0 0 0 74.4 74.6 A 30.021 30.021 0 0 0 74.428 76.011 C 74.538 78.326 75.028 79.528 76.8 81.3 A 40.631 40.631 0 0 1 77.508 82.024 C 78.155 82.705 78.602 83.235 78.846 83.614 A 3.077 3.077 0 0 1 78.9 83.7 C 78.73 82.934 78.704 82.24 78.701 81.618 A 52.357 52.357 0 0 1 78.7 81.3 A 21.73 21.73 0 0 1 78.708 80.587 A 5.383 5.383 0 0 1 78.8 79.7 Z M 196.1 79.7 L 197.4 71.4 A 96.979 96.979 0 0 1 197.852 68.756 C 198.306 66.319 198.775 64.5 199.3 63.3 A 47.777 47.777 0 0 0 200.39 60.34 C 201.92 55.782 203.093 50.807 204.4 49.5 L 204.8 46.3 A 0.853 0.853 0 0 1 204.823 46.121 C 204.955 45.526 205.6 44.369 205.6 44.1 A 2.94 2.94 0 0 0 204.853 42.261 C 203.598 40.719 201.198 39.755 201.198 39.797 A 0.005 0.005 0 0 0 201.2 39.8 A 23.306 23.306 0 0 1 200.085 39.465 C 196.239 38.2 196.907 37.1 194.7 37.1 A 18.581 18.581 0 0 0 193.64 36.113 C 192.889 35.471 192.223 35.04 191.619 34.807 A 2.829 2.829 0 0 0 190.6 34.6 C 187.351 34.6 183.413 38.822 178.466 45.345 A 202.2 202.2 0 0 0 177.3 46.9 A 21.432 21.432 0 0 0 176.216 47.909 C 173.534 50.595 173.752 52.035 171.789 53.533 A 7.31 7.31 0 0 1 171.7 53.6 A 592.512 592.512 0 0 1 171.65 53.679 C 166.099 62.399 165.899 62.208 165.5 64.7 A 19.639 19.639 0 0 1 164.711 65.45 C 164.118 65.98 163.587 66.371 163.095 66.624 A 3.737 3.737 0 0 1 162.7 66.8 C 162 69.3 161.7 71 161.7 72.1 A 7.097 7.097 0 0 0 161.839 73.534 C 162.363 76.088 164.238 77.296 165.24 80.196 A 10.384 10.384 0 0 1 165.4 80.7 C 166.2 83.3 169.1 84.6 169.3 84.6 A 4.36 4.36 0 0 0 171.865 83.731 C 172.279 83.439 172.685 83.076 173.09 82.644 A 11.878 11.878 0 0 0 173.4 82.3 A 348.095 348.095 0 0 0 175.086 81.427 C 179.908 78.912 181.67 77.776 182.45 76.21 A 4.683 4.683 0 0 0 182.7 75.6 C 189.2 70.1 190.4 68.1 191.5 68.1 C 191.789 68.1 192.078 68.286 192.367 68.657 A 3.017 3.017 0 0 1 192.4 68.7 C 192.027 69.725 191.742 71.444 191.704 74.018 A 40.061 40.061 0 0 0 191.7 74.6 A 30.021 30.021 0 0 0 191.728 76.011 C 191.838 78.326 192.328 79.528 194.1 81.3 A 40.631 40.631 0 0 1 194.808 82.024 C 195.455 82.705 195.902 83.235 196.146 83.614 A 3.077 3.077 0 0 1 196.2 83.7 C 196.03 82.934 196.004 82.24 196.001 81.618 A 52.357 52.357 0 0 1 196 81.3 A 21.73 21.73 0 0 1 196.008 80.587 A 5.383 5.383 0 0 1 196.1 79.7 Z M 173.2 35.7 A 1.537 1.537 0 0 0 173.031 35.493 C 172.813 35.264 172.492 35.036 172.112 34.807 A 9.815 9.815 0 0 0 172.1 34.8 A 2.208 2.208 0 0 0 171.552 34.551 A 8.636 8.636 0 0 0 171 34.4 A 10.908 10.908 0 0 1 170.995 34.399 C 170.637 34.309 170.358 34.219 170.015 34.203 A 2.358 2.358 0 0 0 169.9 34.2 C 169.087 34.2 168.029 34.282 166.727 34.592 A 16.598 16.598 0 0 0 166.3 34.7 C 165.359 34.969 164.283 35.418 163.102 35.957 A 140.922 140.922 0 0 0 161.3 36.8 C 159.921 37.575 158.617 38.128 157.643 38.586 A 20.436 20.436 0 0 0 157.2 38.8 A 41.317 41.317 0 0 0 157.182 38.809 C 156.249 39.276 155.579 39.654 155.255 39.696 A 0.432 0.432 0 0 1 155.2 39.7 A 2.485 2.485 0 0 1 154.854 39.676 C 154.562 39.634 154.25 39.537 153.976 39.354 A 1.729 1.729 0 0 1 153.9 39.3 C 153.4 39 152.9 38.4 152.3 37.8 C 151.977 37.477 151.719 37.154 151.474 36.883 A 5.215 5.215 0 0 0 151.3 36.7 A 2.622 2.622 0 0 0 150.977 36.494 C 150.691 36.338 150.419 36.246 150.2 36.1 A 1.136 1.136 0 0 1 150.128 36.048 C 149.917 35.882 149.981 35.784 149.804 35.604 A 0.84 0.84 0 0 0 149.8 35.6 C 149.6 35.3 149.6 35.2 149.3 35.1 A 0.808 0.808 0 0 0 149.222 35.066 C 148.885 34.94 148.773 35.2 148.4 35.2 A 1.077 1.077 0 0 1 148.28 35.194 C 147.91 35.152 147.868 34.925 147.536 34.992 A 0.807 0.807 0 0 0 147.5 35 A 1.621 1.621 0 0 0 147.407 35.026 C 147.133 35.112 147.168 35.205 146.948 35.367 A 1.28 1.28 0 0 1 146.9 35.4 C 146.6 35.5 146.6 35.5 146.3 35.7 A 6.222 6.222 0 0 0 146.149 35.856 C 145.713 36.323 145.753 36.456 145.3 37 A 17.744 17.744 0 0 1 145.194 37.122 C 144.745 37.637 144.678 37.647 144.322 38.131 A 14.722 14.722 0 0 0 144.2 38.3 A 0.165 0.165 0 0 0 144.188 38.314 C 144.119 38.4 144.293 38.409 144.202 38.596 A 0.413 0.413 0 0 1 144.2 38.6 A 0.124 0.124 0 0 1 144.196 38.63 C 144.18 38.698 144.108 38.71 144.101 38.787 A 0.138 0.138 0 0 0 144.1 38.8 A 8.883 8.883 0 0 0 142.834 40.393 A 8.316 8.316 0 0 0 142.3 41.4 C 141.8 42.2 141.5 43.1 141.4 43.9 C 141.3 44.5 141.2 45.2 141.1 46 C 141 46.9 140.8 47.9 140.6 49 C 140.522 49.859 140.505 50.658 140.453 51.347 A 11.188 11.188 0 0 1 140.4 51.9 C 140.3 52.8 140.2 53.5 140.1 54 C 140.004 54.192 140.092 54.2 140.011 54.465 A 1.452 1.452 0 0 1 140 54.5 C 139.9 54.8 139.7 55.2 139.5 55.8 L 139.5 55.7 A 0.127 0.127 0 0 0 139.475 55.702 C 139.411 55.715 139.401 55.778 139.4 55.796 A 0.079 0.079 0 0 0 139.4 55.8 C 139.2 56.4 139.2 56.4 139 57 C 138.9 57.5 139 57.6 138.8 58.1 C 138.5 59.5 138 61.1 137.5 63.1 C 137 65.1 136.6 67.4 135.9 70.1 A 2.324 2.324 0 0 1 135.868 70.443 C 135.839 70.639 135.8 70.85 135.8 71.1 C 135.8 71.4 135.7 71.7 135.8 72 A 10.006 10.006 0 0 1 135.8 72.051 C 135.799 72.201 135.791 72.219 135.701 72.398 A 11.916 11.916 0 0 0 135.7 72.4 C 135.6 72.6 135.4 72.6 135.4 72.8 A 1.332 1.332 0 0 0 135.433 72.888 C 135.519 73.097 135.606 73.131 135.692 73.378 A 1.515 1.515 0 0 1 135.7 73.4 C 135.8 73.7 135.8 73.7 135.9 74 C 135.9 74.092 135.985 74.014 136.076 74.08 A 0.188 0.188 0 0 1 136.1 74.1 A 0.337 0.337 0 0 1 136.115 74.116 C 136.182 74.193 136.115 74.204 136.102 74.277 A 0.135 0.135 0 0 0 136.1 74.3 C 136.2 74.5 136.2 74.5 136.2 74.6 C 136.2 74.785 136.115 74.799 136.102 74.879 A 0.132 0.132 0 0 0 136.1 74.9 C 136.1 75.3 136.3 75.2 136.4 75.6 C 136.497 75.891 136.312 75.994 136.483 76.273 A 0.818 0.818 0 0 0 136.5 76.3 A 6.962 6.962 0 0 0 136.564 76.466 C 136.817 77.09 136.93 77.053 137.3 77.7 A 227.475 227.475 0 0 1 137.428 77.88 C 137.804 78.406 137.838 78.466 138.2 79.1 A 45.667 45.667 0 0 0 138.218 79.135 C 138.3 79.3 138.306 79.306 138.4 79.4 A 0.315 0.315 0 0 1 138.39 79.476 C 138.355 79.621 138.236 79.707 138.382 79.79 A 0.364 0.364 0 0 0 138.4 79.8 C 138.6 80 138.7 79.9 138.9 80 A 0.587 0.587 0 0 1 138.96 80.023 C 139.183 80.126 139.125 80.292 139.382 80.3 A 0.632 0.632 0 0 0 139.4 80.3 A 0.671 0.671 0 0 0 139.446 80.314 C 139.701 80.379 139.716 80.195 140 80.1 A 0.414 0.414 0 0 1 140.067 80.084 C 140.329 80.043 140.513 80.275 140.697 80.004 A 0.573 0.573 0 0 0 140.7 80 C 141.092 79.412 140.908 79.208 141.089 78.541 A 3.156 3.156 0 0 1 141.1 78.5 C 141.385 77.739 141.038 77.431 141.605 77.058 A 1.806 1.806 0 0 1 141.7 77 A 1.128 1.128 0 0 1 141.78 76.963 C 142.292 76.756 142.219 77.319 142.6 77.7 C 143.087 77.992 143.005 78.285 143.556 78.485 A 1.796 1.796 0 0 0 143.6 78.5 C 143.8 78.6 143.7 78.2 143.8 78 C 143.895 77.81 143.99 77.891 144.085 77.729 A 0.491 0.491 0 0 0 144.1 77.7 A 437.046 437.046 0 0 0 144.18 77.406 C 144.385 76.654 144.416 76.52 144.561 75.797 A 469.777 469.777 0 0 0 144.6 75.6 C 144.9 74.5 145 74.5 145.2 73.4 A 0.993 0.993 0 0 0 145.194 73.29 C 145.162 73.005 145.01 72.962 145 72.632 A 1.137 1.137 0 0 1 145 72.6 A 3.128 3.128 0 0 1 145.002 72.472 C 145.017 72.109 145.095 72.065 145.1 71.735 A 2.265 2.265 0 0 0 145.1 71.7 A 1.342 1.342 0 0 0 145.116 71.647 C 145.182 71.419 145.113 71.391 145.102 71.241 A 0.544 0.544 0 0 1 145.1 71.2 C 145.2 70.9 145.2 70.9 145.3 70.7 C 145.6 69.9 145.9 69.1 146.1 68.2 A 26.811 26.811 0 0 0 146.587 66.592 A 17.924 17.924 0 0 0 146.9 65.2 A 428.231 428.231 0 0 1 147.183 63.794 C 147.45 62.481 147.675 61.45 147.9 60.7 C 148.2 59.6 148.6 59.1 148.7 58.8 C 149 57.6 149.3 56.4 149.9 55.3 A 18.25 18.25 0 0 1 150.806 53.512 A 7.536 7.536 0 0 1 151.6 52.4 A 54.236 54.236 0 0 1 154.15 49.221 C 155.822 47.295 157.367 45.822 158.717 44.716 A 25.902 25.902 0 0 1 159.9 43.8 C 162.2 42.1 163.8 41.7 164.3 41.5 A 8.075 8.075 0 0 0 164.548 41.383 C 165.392 40.964 165.39 40.743 166.4 40.1 C 167.4 39.5 167.4 39.5 168.5 38.9 A 25.647 25.647 0 0 1 169.904 38.411 C 170.644 38.175 171.3 37.988 171.8 37.8 C 172.657 37.61 173.151 37.419 173.283 37.056 A 0.569 0.569 0 0 0 173.3 37 C 173.3 36.504 173.398 36.106 173.205 35.709 A 1.121 1.121 0 0 0 173.2 35.7 Z M 75.4 47.6 A 0.15 0.15 0 0 0 75.335 47.67 C 75.117 47.998 74.45 49.475 73.4 52.1 C 71.7 53.4 68.3 58.7 68.3 59.7 A 289.456 289.456 0 0 1 68.244 59.756 C 63.509 64.489 62.153 65.523 61.421 66.557 A 4.603 4.603 0 0 0 61.2 66.9 A 41.82 41.82 0 0 0 60.01 67.879 C 56.739 70.666 54.389 73.454 52.96 74.003 A 1.295 1.295 0 0 1 52.5 74.1 A 1.186 1.186 0 0 1 52.232 74.074 C 51.97 74.012 51.839 73.838 51.808 73.488 A 2.093 2.093 0 0 1 51.8 73.3 C 51.8 71.6 57.5 63.4 58.3 62.2 A 2018.351 2018.351 0 0 1 61.032 59.023 C 66.892 52.228 69.288 49.625 71.3 48.4 A 25.727 25.727 0 0 1 72.1 47.733 C 72.921 47.078 73.579 46.654 74.027 46.484 A 1.098 1.098 0 0 1 74.4 46.4 C 75.059 46.4 75.363 46.754 75.397 47.463 A 2.9 2.9 0 0 1 75.4 47.6 Z M 192.7 47.6 A 0.15 0.15 0 0 0 192.635 47.67 C 192.417 47.998 191.75 49.475 190.7 52.1 C 189 53.4 185.6 58.7 185.6 59.7 A 289.456 289.456 0 0 1 185.544 59.756 C 180.809 64.489 179.453 65.523 178.721 66.557 A 4.603 4.603 0 0 0 178.5 66.9 A 41.82 41.82 0 0 0 177.31 67.879 C 174.039 70.666 171.689 73.454 170.26 74.003 A 1.295 1.295 0 0 1 169.8 74.1 A 1.186 1.186 0 0 1 169.532 74.074 C 169.27 74.012 169.139 73.838 169.108 73.488 A 2.093 2.093 0 0 1 169.1 73.3 C 169.1 71.6 174.8 63.4 175.6 62.2 A 2018.351 2018.351 0 0 1 178.332 59.023 C 184.192 52.228 186.588 49.625 188.6 48.4 A 25.727 25.727 0 0 1 189.4 47.733 C 190.221 47.078 190.879 46.654 191.327 46.484 A 1.098 1.098 0 0 1 191.7 46.4 C 192.359 46.4 192.663 46.754 192.697 47.463 A 2.9 2.9 0 0 1 192.7 47.6 Z M 312.8 39.8 L 310.5 41.9 C 305.4 45.8 304.5 46.3 298.3 48.5 C 296.867 48.882 295.982 49.082 295.644 49.099 A 0.872 0.872 0 0 1 295.6 49.1 A 314.408 314.408 0 0 1 296.043 46.48 C 297.088 40.454 297.563 39.005 298.038 37.152 A 43.726 43.726 0 0 0 298.2 36.5 C 298.391 34.876 298.4 33.526 298.661 32.45 A 5.594 5.594 0 0 1 298.7 32.3 A 9.566 9.566 0 0 1 298.707 31.946 C 298.729 31.344 298.8 30.922 298.8 30.5 A 9.635 9.635 0 0 1 299 29.37 C 299.897 25.684 302.57 26.187 303.451 26.294 A 4.811 4.811 0 0 0 303.5 26.3 L 305.7 26.3 C 305.986 26.205 306.272 26.2 306.644 26.287 A 3.338 3.338 0 0 1 306.7 26.3 C 306.8 26.3 309.5 26.6 311.2 27.5 A 49.162 49.162 0 0 1 312.432 28.312 C 314.446 29.685 315.373 30.579 315.772 31.116 A 1.782 1.782 0 0 1 316 31.5 A 3.978 3.978 0 0 1 316.379 32.747 C 316.436 33.151 316.449 33.598 316.424 34.11 A 13.223 13.223 0 0 1 316.4 34.5 A 3.842 3.842 0 0 1 316.215 35.228 C 315.595 36.989 313.779 38.972 313.021 39.626 A 2.423 2.423 0 0 1 312.8 39.8 Z M 399.8 56.7 A 0.271 0.271 0 0 0 399.786 56.621 C 399.751 56.513 399.656 56.356 399.5 56.2 A 1.882 1.882 0 0 0 399.172 56.226 C 398.846 56.284 398.66 56.444 398.612 56.738 A 1.019 1.019 0 0 0 398.6 56.9 A 1.133 1.133 0 0 0 398.743 56.889 C 399.063 56.848 399.542 56.7 399.8 56.7 Z M 392.7 45.4 A 29.25 29.25 0 0 0 392.691 45.405 C 392.196 45.702 391.899 45.9 391.7 45.9 A 0.924 0.924 0 0 1 391.726 45.674 C 391.787 45.432 391.953 45.308 392.178 45.3 A 0.659 0.659 0 0 1 392.2 45.3 C 392.277 45.3 392.413 45.3 392.563 45.346 A 0.876 0.876 0 0 1 392.7 45.4 Z M 76.906 45.975 A 14.305 14.305 0 0 0 77 45.7 A 0.126 0.126 0 0 0 76.977 45.703 C 76.835 45.731 76.295 45.957 76.134 45.995 A 0.166 0.166 0 0 1 76.1 46 C 76.177 46.077 76.315 46.215 76.511 46.319 A 1.238 1.238 0 0 0 76.7 46.4 A 0.225 0.225 0 0 0 76.705 46.395 C 76.772 46.323 76.839 46.163 76.906 45.975 Z M 194.206 45.975 A 14.305 14.305 0 0 0 194.3 45.7 A 0.126 0.126 0 0 0 194.277 45.703 C 194.135 45.731 193.595 45.957 193.434 45.995 A 0.166 0.166 0 0 1 193.4 46 C 193.477 46.077 193.615 46.215 193.811 46.319 A 1.238 1.238 0 0 0 194 46.4 A 0.225 0.225 0 0 0 194.005 46.395 C 194.072 46.323 194.139 46.163 194.206 45.975 Z" vector-effect="non-scaling-stroke"/></g></svg>