<svg width="468.901" height="71.502" viewBox="0 0 468.901 71.502" xmlns="http://www.w3.org/2000/svg"><g id="svgGroup" stroke-linecap="round" fill-rule="evenodd" font-size="9pt" stroke="#ffffff" stroke-width="0.25mm" fill="#ffffff" style="stroke:#ffffff;stroke-width:0.25mm;fill:#ffffff"><path d="M 47.2 3.3 L 47.2 70.7 L 41 70.7 L 41 39.2 L 6.2 39.2 L 6.2 70.7 L 0 70.7 L 0 3.3 L 6.2 3.3 L 6.2 33.5 L 41 33.5 L 41 3.3 L 47.2 3.3 Z M 409.9 20 L 409.9 70.7 L 403.8 70.7 L 403.8 61.6 A 15.281 15.281 0 0 1 399.099 68.035 Q 394.79 71.4 387.7 71.4 A 19.872 19.872 0 0 1 382.628 70.787 A 14.208 14.208 0 0 1 375.95 66.95 A 14.998 14.998 0 0 1 371.889 58.775 A 21.218 21.218 0 0 1 371.6 55.2 L 371.6 20 L 377.7 20 L 377.7 53.5 Q 377.7 57.837 379.405 60.664 A 9.352 9.352 0 0 0 380.75 62.4 A 10.21 10.21 0 0 0 386.706 65.352 A 14.272 14.272 0 0 0 388.8 65.5 A 15.157 15.157 0 0 0 394.174 64.581 A 13.415 13.415 0 0 0 399.65 60.7 A 16.606 16.606 0 0 0 403.31 53.151 A 23.766 23.766 0 0 0 403.8 48.2 L 403.8 20 L 409.9 20 Z M 279.4 35.3 L 279.4 70.7 L 273.3 70.7 L 273.3 37.2 A 18.537 18.537 0 0 0 272.992 33.708 Q 272.615 31.742 271.774 30.208 A 9.299 9.299 0 0 0 270.3 28.2 A 10.03 10.03 0 0 0 264.171 25.209 A 13.951 13.951 0 0 0 262.4 25.1 A 14.155 14.155 0 0 0 252.054 29.486 A 18.645 18.645 0 0 0 251.7 29.85 A 15.891 15.891 0 0 0 247.781 37.311 A 23.586 23.586 0 0 0 247.2 42.7 L 247.2 70.7 L 241.1 70.7 L 241.1 20 L 247.2 20 L 247.2 28.7 Q 251.9 19.2 263.3 19.2 A 19.209 19.209 0 0 1 268.464 19.859 A 14.357 14.357 0 0 1 275 23.7 A 15.256 15.256 0 0 1 279.258 32.832 A 20.842 20.842 0 0 1 279.4 35.3 Z M 431.6 63.3 L 431.6 70.7 L 425.5 70.7 L 425.5 0 L 431.6 0 L 431.6 27.6 Q 437.2 19.2 447.1 19.2 Q 456.7 19.2 462.8 26.65 A 26.242 26.242 0 0 1 468.104 37.941 A 37.755 37.755 0 0 1 468.9 45.9 A 33.387 33.387 0 0 1 467.73 54.93 A 26.71 26.71 0 0 1 463.2 64.05 Q 457.5 71.5 447.3 71.5 A 20.85 20.85 0 0 1 440.484 70.441 A 16.995 16.995 0 0 1 431.6 63.3 Z M 150.5 20 L 132.5 70.7 L 124.3 70.7 L 106.8 20 L 113.2 20 L 120.3 41.3 L 128.4 65.8 A 53.367 53.367 0 0 1 128.996 63.811 Q 130.451 59.207 134.705 47.002 A 2860.161 2860.161 0 0 1 136.7 41.3 L 144.1 20 L 150.5 20 Z M 90.7 70.7 L 90.7 64.8 Q 86.914 70.569 78.091 71.138 A 30.952 30.952 0 0 1 76.1 71.2 A 19.302 19.302 0 0 1 70.833 70.515 A 14.855 14.855 0 0 1 64.65 67.05 Q 60.2 62.9 60.2 56.4 Q 60.2 49.1 65.85 45.05 Q 71.5 41 80.8 41 L 90.7 41 L 90.7 38.7 A 25.57 25.57 0 0 0 90.444 34.958 Q 89.839 30.876 87.8 28.45 Q 84.9 25 78.1 25 Q 70.2 25 63.9 29.3 L 63.9 22.7 A 23.435 23.435 0 0 1 71.222 19.882 Q 74.246 19.243 77.731 19.203 A 40.744 40.744 0 0 1 78.2 19.2 A 25.474 25.474 0 0 1 85.673 20.201 Q 93.888 22.724 96.038 31.605 A 30.232 30.232 0 0 1 96.8 38.7 L 96.8 70.7 L 90.7 70.7 Z M 220.4 70.7 L 220.4 64.8 Q 216.614 70.569 207.791 71.138 A 30.952 30.952 0 0 1 205.8 71.2 A 19.302 19.302 0 0 1 200.533 70.515 A 14.855 14.855 0 0 1 194.35 67.05 Q 189.9 62.9 189.9 56.4 Q 189.9 49.1 195.55 45.05 Q 201.2 41 210.5 41 L 220.4 41 L 220.4 38.7 A 25.57 25.57 0 0 0 220.144 34.958 Q 219.539 30.876 217.5 28.45 Q 214.6 25 207.8 25 Q 199.9 25 193.6 29.3 L 193.6 22.7 A 23.435 23.435 0 0 1 200.922 19.882 Q 203.946 19.243 207.431 19.203 A 40.744 40.744 0 0 1 207.9 19.2 A 25.474 25.474 0 0 1 215.373 20.201 Q 223.588 22.724 225.738 31.605 A 30.232 30.232 0 0 1 226.5 38.7 L 226.5 70.7 L 220.4 70.7 Z M 335.9 45.1 L 324.8 45.1 L 324.8 70.7 L 318.6 70.7 L 318.6 3.3 L 334.8 3.3 Q 346.6 3.3 353.35 9.25 A 19.555 19.555 0 0 1 360.059 23.407 A 26.669 26.669 0 0 1 360.1 24.9 A 18.374 18.374 0 0 1 354.343 38.453 A 24.087 24.087 0 0 1 353.55 39.2 Q 347.17 44.947 336.473 45.096 A 41.107 41.107 0 0 1 335.9 45.1 Z M 167.2 42.4 L 167.2 70.7 L 161.1 70.7 L 161.1 20 L 167.2 20 L 167.2 28.6 A 17.35 17.35 0 0 1 170.581 23.553 Q 174.073 20.016 179.463 19.492 A 19.982 19.982 0 0 1 181.4 19.4 A 8.222 8.222 0 0 1 181.804 19.412 Q 182.364 19.44 183.295 19.535 A 71.629 71.629 0 0 1 183.9 19.6 L 183.9 25.8 Q 181.9 25.2 179.9 25.2 A 9.869 9.869 0 0 0 172.721 28.272 A 15.617 15.617 0 0 0 170.85 30.55 Q 167.2 35.9 167.2 42.4 Z M 431.6 45.1 A 41.289 41.289 0 0 0 431.951 50.696 Q 432.812 56.962 435.777 60.385 A 11.64 11.64 0 0 0 436.3 60.95 A 15.902 15.902 0 0 0 441.89 64.691 A 15.439 15.439 0 0 0 447.5 65.7 A 12.773 12.773 0 0 0 457.223 61.414 A 17.466 17.466 0 0 0 458.25 60.2 Q 462.392 54.84 462.497 46.44 A 35.123 35.123 0 0 0 462.5 46 A 37.373 37.373 0 0 0 462.07 40.142 Q 461.125 34.197 458.1 30.45 A 14.973 14.973 0 0 0 453.705 26.677 A 13.828 13.828 0 0 0 446.9 25 A 12.987 12.987 0 0 0 442.967 25.627 A 15.287 15.287 0 0 0 442.05 25.95 A 14.311 14.311 0 0 0 439.452 27.295 Q 438.301 28.04 437.15 29.05 A 11.972 11.972 0 0 0 435.083 31.457 Q 434.294 32.647 433.641 34.138 A 23.484 23.484 0 0 0 433.15 35.35 Q 431.6 39.5 431.6 45.1 Z M 335.5 8.8 L 324.8 8.8 L 324.8 39.6 L 336.6 39.6 Q 344.5 39.6 349.15 35.4 A 13.491 13.491 0 0 0 353.782 25.679 A 16.558 16.558 0 0 0 353.8 24.9 A 18.394 18.394 0 0 0 353.097 19.681 A 13.99 13.99 0 0 0 349 13.15 A 15.753 15.753 0 0 0 342.799 9.756 Q 339.578 8.8 335.5 8.8 Z M 90.7 53.9 L 90.7 46.6 L 80.8 46.6 A 29.507 29.507 0 0 0 77.091 46.818 Q 72.802 47.362 70.3 49.272 A 9.081 9.081 0 0 0 70.2 49.35 A 9.846 9.846 0 0 0 68.008 51.692 A 8.061 8.061 0 0 0 66.7 56.2 A 10.442 10.442 0 0 0 67.154 59.348 A 8.439 8.439 0 0 0 69.45 63 Q 71.749 65.173 75.83 65.53 A 19.201 19.201 0 0 0 77.5 65.6 A 17.706 17.706 0 0 0 81.583 65.155 A 12.143 12.143 0 0 0 87.1 62.3 A 10.813 10.813 0 0 0 90.691 54.413 A 14.073 14.073 0 0 0 90.7 53.9 Z M 220.4 53.9 L 220.4 46.6 L 210.5 46.6 A 29.507 29.507 0 0 0 206.791 46.818 Q 202.502 47.362 200 49.272 A 9.081 9.081 0 0 0 199.9 49.35 A 9.846 9.846 0 0 0 197.708 51.692 A 8.061 8.061 0 0 0 196.4 56.2 A 10.442 10.442 0 0 0 196.854 59.348 A 8.439 8.439 0 0 0 199.15 63 Q 201.449 65.173 205.53 65.53 A 19.201 19.201 0 0 0 207.2 65.6 A 17.706 17.706 0 0 0 211.283 65.155 A 12.143 12.143 0 0 0 216.8 62.3 A 10.813 10.813 0 0 0 220.391 54.413 A 14.073 14.073 0 0 0 220.4 53.9 Z" vector-effect="non-scaling-stroke"/></g></svg>