<?xml version="1.0" encoding="UTF-8"?>
<svg id="Vrstva_2" data-name="Vrstva 2" xmlns="http://www.w3.org/2000/svg" viewBox="0 0 312.15 23.85">
  <defs>
    <style>
      .cls-1 {
        fill: #010101;
        stroke-width: 0px;
      }
    </style>
  </defs>
  <g id="Vrstva_1-2" data-name="Vrstva 1">
    <g>
      <g>
        <path class="cls-1" d="M7.42,20.74c-2.03,0-3.67-.61-5.29-1.99l-2.13-1.8.78,4.46.3.24c1.21.95,3.28,2.08,6.3,2.08,4.24,0,7.32-2.77,7.32-6.59,0-4.19-3.15-6.01-6.56-7.35-3.08-1.2-3.71-2.41-3.71-3.87s1.13-2.81,3.64-2.81c1.33,0,2.73.52,3.42,1.03l1.15.85.95-3.05-.64-.42C11.63.64,9.82.12,8.12.12,3.5.12,1.4,3.16,1.4,5.98c0,3.12,1.76,5.15,5.89,6.79,3.63,1.43,4.34,2.71,4.34,4.44,0,2.08-1.73,3.54-4.2,3.54Z"/>
        <polygon class="cls-1" points="38.34 23.53 38.34 3.3 46.22 3.3 46.22 .32 27.42 .32 27.42 3.3 35.26 3.3 35.26 23.53 38.34 23.53"/>
        <path class="cls-1" d="M74.85,15.13c0,4.84-3.61,5.57-5.76,5.57s-5.76-.72-5.76-5.57V.17h-3.09v15.03c0,5.23,3.39,8.49,8.85,8.49s8.88-3.25,8.88-8.49V.17h-3.12v14.96Z"/>
        <rect class="cls-1" x="128.17" y=".32" width="3.09" height="23.22"/>
        <path class="cls-1" d="M158.75,0c-6.72,0-11.97,5.25-11.97,11.94s5.26,11.91,11.97,11.91,11.94-5.23,11.94-11.91-5.25-11.94-11.94-11.94ZM158.75,20.86c-5.05,0-8.85-3.83-8.85-8.92s3.81-8.92,8.85-8.92,8.82,3.83,8.82,8.92-3.79,8.92-8.82,8.92Z"/>
        <path class="cls-1" d="M99.55.32h-5.43v2.99h5.33c6.11,0,10.05,3.38,10.05,8.62s-3.85,8.59-10.05,8.59h-5.33v3.02h5.43c7.82,0,13.07-4.66,13.07-11.61S107.37.32,99.55.32Z"/>
      </g>
      <g>
        <path class="cls-1" d="M278.05.1h-3.16l-4.64,13.58c-.37,1.07-.75,2.21-1.13,3.41-.36-1.14-.73-2.3-1.11-3.44L263.46.1h-2.48l-4.58,13.56c-.4,1.19-.79,2.37-1.14,3.5-.4-1.22-.82-2.41-1.19-3.47L249.42.1h-3.23l8.09,23.65h1.88l4.97-14.75c.35-1.05.68-2.06,1.02-3.09.17.51.34,1.01.51,1.51.26.75.52,1.5.77,2.27l4.68,14.06h1.85L278.05.1Z"/>
        <path class="cls-1" d="M310.37,23.6h1.78V.25h-3.05v13.82c0,1.16,0,2.28.03,3.42-.98-1.2-2.13-2.58-3.45-4.14L294.69.25h-2.25v23.18h3.05v-13.95c0-1.25,0-2.45,0-3.6,1.15,1.41,2.48,3.01,3.73,4.48l11.15,13.23Z"/>
        <path class="cls-1" d="M189.18.33h-5.42v2.99h5.32c6.1,0,10.04,3.38,10.04,8.61s-3.85,8.58-10.04,8.58h-5.32v3.01h5.42c7.81,0,13.05-4.66,13.05-11.59S196.99.33,189.18.33Z"/>
        <path class="cls-1" d="M224.45.18l-9.11,23.48h3.26l6.25-16.16c.16-.41.32-.84.49-1.29.16.45.32.89.49,1.31l6.22,16.14h3.29L226.27.18h-1.82Z"/>
      </g>
    </g>
  </g>
</svg>