<svg width="101" height="101" fill="none" xmlns="http://www.w3.org/2000/svg">
    <g clip-path="url(#clip0)">
        <path d="M28.446 1.437a2.173 2.173 0 00-3.074 3.073L71.647 50.79 25.368 97.064a2.174 2.174 0 003.02 3.126l.053-.053 47.813-47.813a2.173 2.173 0 000-3.074L28.446 1.437z" fill="#F44336"/>
        <path d="M26.907 100.775a2.173 2.173 0 01-1.539-3.712L71.647 50.79 25.368 4.515a2.176 2.176 0 113.078-3.078L76.259 49.25a2.174 2.174 0 010 3.074l-47.813 47.812a2.172 2.172 0 01-1.54.639z" fill="black"/>
    </g>
    <defs>
        <clipPath id="clip0">
            <path fill="white" transform="translate(.8 .8)" d="M0 0h100v100H0z"/>
        </clipPath>
    </defs>
</svg>
