<svg width="158.1" height="70.4" viewBox="0 0 158.1 70.4" xmlns="http://www.w3.org/2000/svg"><g id="svgGroup" stroke-linecap="round" fill-rule="evenodd" font-size="9pt" stroke="#ffffff" stroke-width="0.25mm" fill="#ffffff" style="stroke:#ffffff;stroke-width:0.25mm;fill:#ffffff"><path d="M 154.2 2.2 L 152.8 10.3 A 91.997 91.997 0 0 0 148.447 9.327 A 101.824 101.824 0 0 0 147.8 9.2 Q 145.5 8.7 142.55 8.35 A 51.294 51.294 0 0 0 137.394 8.009 A 57.457 57.457 0 0 0 136.4 8 A 38.548 38.548 0 0 0 132.765 8.159 Q 128.15 8.598 125.8 10.25 Q 122.6 12.5 122.6 17.2 Q 122.7 20.9 125.3 23.45 A 25.766 25.766 0 0 0 128.429 26.047 A 34.963 34.963 0 0 0 131.8 28.15 A 100.116 100.116 0 0 0 136.968 30.798 A 121.955 121.955 0 0 0 140.35 32.35 A 54.884 54.884 0 0 1 147.411 36.077 A 49.298 49.298 0 0 1 148.9 37.05 A 27.403 27.403 0 0 1 154.68 42.269 A 25.545 25.545 0 0 1 155.45 43.25 A 13.238 13.238 0 0 1 157.924 49.373 A 17.557 17.557 0 0 1 158.1 51.9 A 22.23 22.23 0 0 1 157.774 55.824 Q 157.381 58.016 156.512 59.78 A 11.88 11.88 0 0 1 155.55 61.4 Q 153 65 149.1 67 A 27.258 27.258 0 0 1 141.558 69.531 A 31.066 31.066 0 0 1 140.55 69.7 A 62.949 62.949 0 0 1 134.505 70.325 A 53.167 53.167 0 0 1 131.7 70.4 A 55.572 55.572 0 0 1 127.648 70.259 A 42.328 42.328 0 0 1 124.4 69.9 A 81.934 81.934 0 0 1 122.052 69.511 Q 120.894 69.301 119.874 69.076 A 43.694 43.694 0 0 1 118.7 68.8 A 46.441 46.441 0 0 1 115.708 67.949 A 36.741 36.741 0 0 1 113.6 67.2 L 115.6 59.1 A 34.788 34.788 0 0 0 119.845 60.617 A 38.854 38.854 0 0 0 120.5 60.8 Q 122.8 61.4 125.65 61.9 A 33.616 33.616 0 0 0 130.025 62.365 A 39.229 39.229 0 0 0 131.7 62.4 A 52.994 52.994 0 0 0 135.771 62.251 A 40.998 40.998 0 0 0 138.85 61.9 A 25.513 25.513 0 0 0 141.71 61.299 Q 143.225 60.884 144.5 60.3 A 11.013 11.013 0 0 0 146.519 59.115 A 8.549 8.549 0 0 0 148.25 57.4 A 6.691 6.691 0 0 0 149.505 54.325 A 8.914 8.914 0 0 0 149.6 53 A 10.435 10.435 0 0 0 149.097 49.968 A 8.349 8.349 0 0 0 147.05 46.65 A 22.826 22.826 0 0 0 144.6 44.545 Q 143.285 43.558 141.691 42.607 A 42.413 42.413 0 0 0 140.55 41.95 A 113.275 113.275 0 0 0 134.173 38.676 A 130.868 130.868 0 0 0 131.85 37.6 Q 127.2 35.5 123.3 32.8 Q 119.4 30.1 116.75 26.4 A 13.866 13.866 0 0 1 114.442 20.921 A 19.308 19.308 0 0 1 114.1 17.2 Q 114.1 14 115.2 10.9 A 13.173 13.173 0 0 1 118.273 6.05 A 15.806 15.806 0 0 1 118.95 5.4 Q 121.48 3.109 125.467 1.638 A 28.879 28.879 0 0 1 125.85 1.5 A 23.669 23.669 0 0 1 129.641 0.529 Q 132.659 0 136.4 0 A 66.546 66.546 0 0 1 141.499 0.189 A 57.586 57.586 0 0 1 143.25 0.35 Q 145.738 0.618 147.728 0.915 A 70.425 70.425 0 0 1 148.9 1.1 A 96.183 96.183 0 0 1 152.77 1.87 A 82.584 82.584 0 0 1 154.2 2.2 Z M 21.4 69.1 L 21.4 8.7 L 0 8.7 L 0 0.9 L 51.2 0.9 L 51.2 8.7 L 29.8 8.7 L 29.8 69.1 L 21.4 69.1 Z M 50 69.1 L 73.4 0.9 L 83.8 0.9 L 107.2 69.1 L 98.5 69.1 L 92.5 50.9 L 64.8 50.9 L 58.7 69.1 L 50 69.1 Z M 67.4 42.9 L 89.8 42.9 L 78.8 8.9 L 78.5 8.9 L 67.4 42.9 Z" vector-effect="non-scaling-stroke"/></g></svg>