<svg class="startitup-header__logo-image" width="164px" height="72px" viewBox="0 0 957 428" fill="none" xmlns="http://www.w3.org/2000/svg" title="Hlavná stránka Startitup" alt="Startitup">
<path d="M723.614 34C651.314 34 589.214 79.186 562.914 143.344H581.514C606.614 88.978 660.914 51.34 723.614 51.34C810.214 51.34 880.614 123.148 880.614 211.48C880.614 299.812 810.214 371.62 723.614 371.62C661.314 371.62 607.314 334.39 582.014 280.636H563.314C589.814 344.284 651.614 388.96 723.614 388.96C819.514 388.96 897.614 309.298 897.614 211.48C897.614 113.662 819.514 34 723.614 34Z" fill="#EF433C"></path>
<path d="M60.5138 255.136C59.0138 253.912 58.4138 252.994 59.7138 250.546L65.1138 241.06C66.3138 238.918 68.9138 238.918 70.2138 240.04C76.4138 244.834 83.1138 249.526 92.9138 249.526C100.714 249.526 106.614 244.324 106.614 237.694C106.614 229.84 100.114 224.536 87.5138 219.334C73.4138 213.52 59.3138 204.34 59.3138 186.286C59.3138 172.618 69.2138 156.91 93.1138 156.91C108.414 156.91 120.114 164.866 123.114 167.212C124.614 168.13 125.114 170.782 124.014 172.312L118.314 181.084C117.114 182.92 114.814 184.144 113.014 182.92C106.514 178.738 100.414 174.454 92.1138 174.454C83.5138 174.454 78.9138 179.35 78.9138 185.164C78.9138 192.406 84.5138 197.302 96.6138 202.3C111.214 208.318 128.014 217.192 128.014 236.878C128.014 252.688 114.614 267.172 93.5138 267.172C74.6138 267.07 64.9138 259.012 60.5138 255.136Z" fill="black"></path>
<path d="M163.614 176.8H140.614C138.914 176.8 137.714 175.372 137.714 173.842V161.296C137.714 159.766 138.914 158.338 140.614 158.338H206.214C207.914 158.338 209.114 159.766 209.114 161.296V173.842C209.114 175.372 207.914 176.8 206.214 176.8H183.214V262.684C183.214 264.214 181.814 265.642 180.314 265.642H166.314C164.814 265.642 163.414 264.316 163.414 262.684V176.8H163.614Z" fill="black"></path>
<path d="M206.614 261.562L253.314 158.542C253.814 157.624 254.514 156.91 255.914 156.91H257.414C258.914 156.91 259.514 157.726 260.014 158.542L306.214 261.562C307.114 263.602 305.914 265.54 303.714 265.54H290.614C288.314 265.54 287.314 264.622 286.214 262.48L278.814 245.956H233.914L226.514 262.48C225.914 264.01 224.514 265.54 222.114 265.54H209.014C206.914 265.54 205.714 263.602 206.614 261.562ZM271.414 229.024L256.414 195.364H255.914L241.214 229.024H271.414Z" fill="black"></path>
<path d="M319.314 161.398C319.314 159.868 320.514 158.44 322.214 158.44H365.114C383.114 158.44 397.814 173.128 397.814 191.386C397.814 205.462 388.614 216.988 375.614 222.292L396.214 261.154C397.214 263.194 396.214 265.642 393.614 265.642H377.814C376.414 265.642 375.714 264.826 375.414 264.316L355.414 223.72H338.814V262.786C338.814 264.316 337.414 265.744 335.914 265.744H322.114C320.414 265.744 319.214 264.418 319.214 262.786V161.398H319.314ZM363.414 207.298C371.414 207.298 378.314 200.26 378.314 191.692C378.314 183.532 371.414 176.8 363.414 176.8H338.914V207.298H363.414Z" fill="black"></path>
<path d="M435.214 176.8H412.214C410.514 176.8 409.314 175.372 409.314 173.842V161.296C409.314 159.766 410.514 158.338 412.214 158.338H477.814C479.414 158.338 480.614 159.766 480.614 161.296V173.842C480.614 175.372 479.414 176.8 477.814 176.8H454.814V262.684C454.814 264.214 453.414 265.642 451.914 265.642H437.914C436.414 265.642 435.014 264.316 435.014 262.684V176.8H435.214Z" fill="black"></path>
<path d="M497.314 161.398C497.314 159.868 498.614 158.44 500.114 158.44H514.114C515.614 158.44 517.014 159.868 517.014 161.398V262.684C517.014 264.214 515.614 265.642 514.114 265.642H500.114C498.614 265.642 497.314 264.316 497.314 262.684V161.398V161.398Z" fill="black"></path>
<path d="M559.414 176.8H536.414C534.814 176.8 533.614 175.372 533.614 173.842V161.296C533.614 159.766 534.814 158.338 536.414 158.338H602.014C603.614 158.338 604.814 159.766 604.814 161.296V173.842C604.814 175.372 603.614 176.8 602.014 176.8H579.014V262.684C579.014 264.214 577.714 265.642 576.214 265.642H562.214C560.714 265.642 559.414 264.316 559.414 262.684V176.8V176.8Z" fill="black"></path>
<path d="M621.614 181.39L641.214 149.974L661.114 181.39H621.614Z" fill="#EF433C"></path>
<path d="M630.014 193.426C630.014 191.794 631.514 190.264 633.114 190.264H648.614C650.414 190.264 651.714 191.794 651.714 193.426V227.8C651.714 241.978 661.214 251.77 675.414 251.77C689.614 251.77 699.314 241.978 699.314 227.902V158.236C699.314 156.604 700.614 155.074 702.414 155.074H717.914C719.514 155.074 721.014 156.604 721.014 158.236V228.922C721.014 254.32 701.214 273.496 675.414 273.496C649.714 273.496 629.914 254.32 629.914 228.922V193.426H630.014Z" fill="black"></path>
<path d="M747.714 158.338C747.714 156.706 749.014 155.176 750.814 155.176H789.214C809.314 155.176 825.814 171.904 825.814 191.998C825.814 212.704 809.314 229.534 789.314 229.534H768.914V270.436C768.914 272.068 767.414 273.598 765.814 273.598H750.814C749.014 273.598 747.714 272.068 747.714 270.436V158.338ZM788.614 209.134C797.814 209.134 804.814 201.586 804.814 191.794C804.814 182.614 797.814 175.576 788.614 175.576H769.014V209.134H788.614Z" fill="black"></path>
</svg>