<svg width="484.033" height="70.02" viewBox="0 0 484.033 70.02" xmlns="http://www.w3.org/2000/svg"><g id="svgGroup" stroke-linecap="round" fill-rule="evenodd" font-size="9pt" stroke="#000" stroke-width="0.25mm" fill="#ffffff" style="stroke:#000;stroke-width:0.25mm;fill:#ffffff"><path d="M 71.387 0 L 71.387 70.02 L 63.232 70.02 L 63.232 23.047 A 115.347 115.347 0 0 1 63.329 18.522 Q 63.409 16.491 63.556 14.216 A 238.794 238.794 0 0 1 63.916 9.424 L 63.721 9.424 A 94.274 94.274 0 0 1 63.15 11.624 Q 62.317 14.673 61.621 16.211 L 37.695 70.02 L 33.691 70.02 L 9.814 16.602 Q 8.962 14.653 8.075 10.982 A 87.644 87.644 0 0 1 7.715 9.424 L 7.52 9.424 A 62.078 62.078 0 0 1 7.69 11.856 Q 7.887 15.566 7.908 21.672 A 433.968 433.968 0 0 1 7.91 23.145 L 7.91 70.02 L 0 70.02 L 0 0 L 10.84 0 L 32.324 48.828 Q 34.814 54.443 35.547 57.227 L 35.84 57.227 Q 37.447 52.815 38.568 50.121 A 60.223 60.223 0 0 1 39.209 48.633 L 61.133 0 L 71.387 0 Z M 117.041 0 L 143.994 70.02 L 134.912 70.02 L 127.49 50.391 L 97.803 50.391 L 90.82 70.02 L 81.689 70.02 L 108.545 0 L 117.041 0 Z M 228.613 0 L 255.566 70.02 L 246.484 70.02 L 239.063 50.391 L 209.375 50.391 L 202.393 70.02 L 193.262 70.02 L 220.117 0 L 228.613 0 Z M 340.186 0 L 367.139 70.02 L 358.057 70.02 L 350.635 50.391 L 320.947 50.391 L 313.965 70.02 L 304.834 70.02 L 331.689 0 L 340.186 0 Z M 457.08 0 L 484.033 70.02 L 474.951 70.02 L 467.529 50.391 L 437.842 50.391 L 430.859 70.02 L 421.729 70.02 L 448.584 0 L 457.08 0 Z M 418.848 0 L 418.848 7.422 L 398.633 7.422 L 398.633 70.02 L 390.43 70.02 L 390.43 7.422 L 370.264 7.422 L 370.264 0 L 418.848 0 Z M 190.625 62.598 L 190.625 70.02 L 154.297 70.02 L 154.297 0 L 162.5 0 L 162.5 62.598 L 190.625 62.598 Z M 302.197 62.598 L 302.197 70.02 L 265.869 70.02 L 265.869 0 L 274.072 0 L 274.072 62.598 L 302.197 62.598 Z M 100.537 43.018 L 124.805 43.018 L 113.818 13.184 A 11.673 11.673 0 0 1 113.55 12.341 Q 113.276 11.371 113.002 9.943 A 60.571 60.571 0 0 1 112.744 8.496 L 112.549 8.496 A 42.727 42.727 0 0 1 112.229 10.234 Q 111.862 12.009 111.426 13.184 L 100.537 43.018 Z M 212.109 43.018 L 236.377 43.018 L 225.391 13.184 A 11.673 11.673 0 0 1 225.122 12.341 Q 224.848 11.371 224.574 9.943 A 60.571 60.571 0 0 1 224.316 8.496 L 224.121 8.496 A 42.727 42.727 0 0 1 223.802 10.234 Q 223.434 12.009 222.998 13.184 L 212.109 43.018 Z M 323.682 43.018 L 347.949 43.018 L 336.963 13.184 A 11.673 11.673 0 0 1 336.694 12.341 Q 336.421 11.371 336.147 9.943 A 60.571 60.571 0 0 1 335.889 8.496 L 335.693 8.496 A 42.727 42.727 0 0 1 335.374 10.234 Q 335.007 12.009 334.57 13.184 L 323.682 43.018 Z M 440.576 43.018 L 464.844 43.018 L 453.857 13.184 A 11.673 11.673 0 0 1 453.589 12.341 Q 453.315 11.371 453.041 9.943 A 60.571 60.571 0 0 1 452.783 8.496 L 452.588 8.496 A 42.727 42.727 0 0 1 452.268 10.234 Q 451.901 12.009 451.465 13.184 L 440.576 43.018 Z" vector-effect="non-scaling-stroke"/></g></svg>