<svg width="555.6" height="71.405" viewBox="0 0 555.6 71.405" xmlns="http://www.w3.org/2000/svg"><g id="svgGroup" stroke-linecap="round" fill-rule="evenodd" font-size="9pt" stroke="#bb2026" stroke-width="0.25mm" fill="#bb2026" style="stroke:#bb2026;stroke-width:0.25mm;fill:#bb2026"><path d="M 0 70.001 L 48.3 70.001 L 48.3 60.301 L 11.1 60.301 L 11.1 58.901 L 47.9 14.001 L 47.9 0.001 L 1.1 0.001 L 1.1 9.701 L 36.8 9.701 L 36.8 11.101 L 0 56.001 L 0 70.001 Z M 279.9 70.001 L 290.2 70.001 L 290.2 49.501 L 291.8 49.501 L 312.2 70.001 L 325.7 70.001 L 300 44.601 L 324.9 20.701 L 311.2 20.701 L 291.8 39.901 L 290.2 39.901 L 290.2 0.001 L 279.9 0.001 L 279.9 70.001 Z M 139.1 40.701 L 135.6 40.101 A 31.222 31.222 0 0 1 132.267 39.321 C 128.874 38.293 126.9 36.695 126.9 33.601 A 5.138 5.138 0 0 1 130.118 28.783 C 130.944 28.388 131.919 28.096 133.032 27.915 A 17.979 17.979 0 0 1 135.9 27.701 A 15.959 15.959 0 0 1 140.527 28.308 C 143.249 29.135 145.27 30.86 146.338 33.795 A 13.017 13.017 0 0 1 146.9 35.901 L 156.5 33.201 A 17.351 17.351 0 0 0 143.826 20.354 A 28.331 28.331 0 0 0 135.9 19.301 A 29.004 29.004 0 0 0 128.08 20.29 C 121.119 22.245 116.9 27.026 116.9 34.001 C 116.9 43.301 124.9 47.201 134.9 49.001 L 138.4 49.601 C 142.477 50.365 145.336 51.251 146.875 52.828 A 4.714 4.714 0 0 1 148.2 56.301 A 5.929 5.929 0 0 1 144.757 61.709 C 143.834 62.197 142.735 62.568 141.472 62.803 A 18.996 18.996 0 0 1 138 63.101 A 16.151 16.151 0 0 1 130.429 61.484 C 128.482 60.455 126.865 58.877 125.749 56.585 A 16.062 16.062 0 0 1 124.4 52.201 L 114.8 54.501 A 19.65 19.65 0 0 0 118.51 63.518 C 122.549 68.784 129.387 71.401 138 71.401 A 31.318 31.318 0 0 0 146.361 70.356 C 153.696 68.317 158.174 63.366 158.297 56.109 A 18.18 18.18 0 0 0 158.3 55.801 A 12.924 12.924 0 0 0 156.98 49.819 C 154.469 44.908 148.611 42.623 141.478 41.155 A 88.847 88.847 0 0 0 139.1 40.701 Z M 446.4 70.001 L 456.7 70.001 L 456.7 45.101 C 456.7 34.501 462.3 28.701 470.8 28.701 A 15.491 15.491 0 0 1 476.045 29.517 C 480.347 31.064 482.8 34.852 482.8 41.201 L 482.8 70.001 L 493.1 70.001 L 493.1 40.401 A 24.189 24.189 0 0 0 491.433 31.256 C 488.531 24.119 482.083 19.966 473.991 19.902 A 24.037 24.037 0 0 0 473.8 19.901 A 26.59 26.59 0 0 0 469.183 20.279 C 462.838 21.398 459.66 24.817 458.1 28.101 L 456.5 28.101 L 456.5 20.701 L 446.4 20.701 L 446.4 70.001 Z M 91.1 63.001 L 92.7 63.001 L 92.7 63.301 C 92.7 66.453 94.591 68.718 97.555 69.597 A 10.358 10.358 0 0 0 100.5 70.001 L 108.2 70.001 L 108.2 61.401 L 104 61.401 C 102.2 61.401 101.2 60.401 101.2 58.401 L 101.2 38.101 A 21.117 21.117 0 0 0 99.601 29.669 C 96.703 22.968 90 19.301 80.6 19.301 A 28.819 28.819 0 0 0 73.186 20.204 C 70.187 21.001 67.695 22.287 65.656 23.913 A 19.952 19.952 0 0 0 59.1 33.801 L 68.7 36.901 A 10.593 10.593 0 0 1 74.947 28.884 C 76.484 28.249 78.323 27.901 80.5 27.901 C 87.155 27.901 90.564 31.148 91.041 36.141 A 13.237 13.237 0 0 1 91.1 37.401 L 91.1 40.601 L 76.1 40.601 A 26.44 26.44 0 0 0 67.358 41.965 C 61.887 43.889 58.142 47.832 57.425 53.694 A 17.354 17.354 0 0 0 57.3 55.801 A 14.994 14.994 0 0 0 59.36 63.661 C 62.39 68.686 68.489 71.401 75.8 71.401 C 86 71.401 89.6 66.201 91.1 63.001 Z M 538.5 63.001 L 540.1 63.001 L 540.1 63.301 C 540.1 66.453 541.991 68.718 544.955 69.597 A 10.358 10.358 0 0 0 547.9 70.001 L 555.6 70.001 L 555.6 61.401 L 551.4 61.401 C 549.6 61.401 548.6 60.401 548.6 58.401 L 548.6 38.101 A 21.117 21.117 0 0 0 547.001 29.669 C 544.103 22.968 537.4 19.301 528 19.301 A 28.819 28.819 0 0 0 520.586 20.204 C 517.587 21.001 515.095 22.287 513.056 23.913 A 19.952 19.952 0 0 0 506.5 33.801 L 516.1 36.901 A 10.593 10.593 0 0 1 522.347 28.884 C 523.884 28.249 525.723 27.901 527.9 27.901 C 534.555 27.901 537.964 31.148 538.441 36.141 A 13.237 13.237 0 0 1 538.5 37.401 L 538.5 40.601 L 523.5 40.601 A 26.44 26.44 0 0 0 514.758 41.965 C 509.287 43.889 505.542 47.832 504.825 53.694 A 17.354 17.354 0 0 0 504.7 55.801 A 14.994 14.994 0 0 0 506.76 63.661 C 509.79 68.686 515.889 71.401 523.2 71.401 C 533.4 71.401 537 66.201 538.5 63.001 Z M 240.6 58.201 L 232 53.801 A 13.894 13.894 0 0 1 225.666 60.951 C 223.835 61.862 221.564 62.401 218.7 62.401 C 211.472 62.401 205.912 58.23 204.399 51.407 A 17.59 17.59 0 0 1 204 48.201 L 241.9 48.201 L 241.9 44.301 A 28.691 28.691 0 0 0 239.493 32.394 C 235.795 24.245 228.084 19.301 218.1 19.301 C 205.951 19.301 196.89 26.392 194.272 37.75 A 31.365 31.365 0 0 0 193.5 44.801 L 193.5 46.001 C 193.5 59.755 201.581 69.306 214.111 71.096 A 31.027 31.027 0 0 0 218.5 71.401 A 29.826 29.826 0 0 0 224.813 70.763 C 233.153 68.961 237.527 63.669 240.084 59.146 A 35.637 35.637 0 0 0 240.6 58.201 Z M 403.4 70.001 L 419.8 70.001 L 436.4 20.701 L 425.5 20.701 L 412.4 62.401 L 410.8 62.401 L 397.7 20.701 L 386.8 20.701 L 403.4 70.001 Z M 380.9 46.101 L 380.9 44.601 A 27.53 27.53 0 0 0 378.357 32.644 C 374.322 24.204 365.822 19.301 355.3 19.301 A 27.638 27.638 0 0 0 341.563 22.695 C 335.909 25.906 331.91 31.277 330.431 38.312 A 30.536 30.536 0 0 0 329.8 44.601 L 329.8 46.101 A 27.952 27.952 0 0 0 332.192 57.822 C 335.649 65.364 342.604 70.104 351.415 71.171 A 32.312 32.312 0 0 0 355.3 71.401 A 27.876 27.876 0 0 0 369.131 67.993 C 374.778 64.793 378.785 59.445 380.268 52.404 A 30.556 30.556 0 0 0 380.9 46.101 Z M 254.3 70.001 L 264.6 70.001 L 264.6 0.001 L 254.3 0.001 L 254.3 70.001 Z M 170.3 70.001 L 180.6 70.001 L 180.6 20.701 L 170.3 20.701 L 170.3 70.001 Z M 340.1 45.801 L 340.1 44.901 A 20.129 20.129 0 0 1 341.313 37.754 C 343.424 32.179 348.143 28.851 354.3 28.527 A 19.055 19.055 0 0 1 355.3 28.501 A 15.914 15.914 0 0 1 363.483 30.586 C 366.495 32.367 368.7 35.239 369.804 39.003 A 20.936 20.936 0 0 1 370.6 44.901 L 370.6 45.801 A 20.149 20.149 0 0 1 369.423 52.85 C 367.33 58.473 362.597 61.796 356.462 62.166 A 19.289 19.289 0 0 1 355.3 62.201 A 15.734 15.734 0 0 1 347.033 60.045 C 344.171 58.303 342.053 55.548 340.952 51.931 A 21.039 21.039 0 0 1 340.1 45.801 Z M 463.1 14.701 L 475.6 14.701 L 487.6 0.401 L 476.7 0.401 L 470.1 8.301 L 468.6 8.301 L 462 0.401 L 451.1 0.401 L 463.1 14.701 Z M 231.5 40.301 L 204.1 40.301 A 14.848 14.848 0 0 1 206.359 34.01 C 208.18 31.271 210.964 29.438 214.522 28.729 A 17.796 17.796 0 0 1 218 28.401 A 15.815 15.815 0 0 1 224.142 29.549 C 227.918 31.134 230.47 34.297 231.281 38.646 A 16.141 16.141 0 0 1 231.5 40.301 Z M 76.7 48.601 L 91.1 48.601 L 91.1 49.601 A 14.653 14.653 0 0 1 89.839 55.781 C 87.746 60.317 83.195 62.901 77.3 62.901 A 15.195 15.195 0 0 1 73.494 62.455 C 72.142 62.104 71.001 61.555 70.093 60.834 A 6.554 6.554 0 0 1 67.6 55.501 A 6.399 6.399 0 0 1 68.603 51.907 C 69.889 49.958 72.342 48.845 75.565 48.637 A 17.63 17.63 0 0 1 76.7 48.601 Z M 524.1 48.601 L 538.5 48.601 L 538.5 49.601 A 14.653 14.653 0 0 1 537.239 55.781 C 535.146 60.317 530.595 62.901 524.7 62.901 A 15.195 15.195 0 0 1 520.894 62.455 C 519.542 62.104 518.401 61.555 517.493 60.834 A 6.554 6.554 0 0 1 515 55.501 A 6.399 6.399 0 0 1 516.003 51.907 C 517.289 49.958 519.742 48.845 522.965 48.637 A 17.63 17.63 0 0 1 524.1 48.601 Z M 74.6 14.701 L 83.9 14.701 L 94 0.401 L 82.1 0.401 L 74.6 14.701 Z M 175.5 14.001 A 7.345 7.345 0 0 0 179.95 12.586 C 181.298 11.573 182.231 10.061 182.512 8.202 A 8.041 8.041 0 0 0 182.6 7.001 C 182.6 2.801 179.5 0.001 175.5 0.001 A 7.541 7.541 0 0 0 171.54 1.053 C 169.609 2.233 168.4 4.335 168.4 7.001 A 7.347 7.347 0 0 0 169.281 10.597 C 170.295 12.423 172.113 13.625 174.363 13.926 A 8.556 8.556 0 0 0 175.5 14.001 Z" vector-effect="non-scaling-stroke"/></g></svg>