<?xml version="1.0" encoding="UTF-8"?>
<!DOCTYPE svg PUBLIC "-//W3C//DTD SVG 1.1//EN" "http://www.w3.org/Graphics/SVG/1.1/DTD/svg11.dtd">
<!-- Creator: CorelDRAW 2019 (64-Bit) -->
<svg xmlns="http://www.w3.org/2000/svg" xml:space="preserve" width="185.635mm" height="98.8445mm" version="1.1" style="shape-rendering:geometricPrecision; text-rendering:geometricPrecision; image-rendering:optimizeQuality; fill-rule:evenodd; clip-rule:evenodd"
viewBox="0 0 185.4823 98.7632"
 xmlns:xlink="http://www.w3.org/1999/xlink"
 xmlns:xodm="http://www.corel.com/coreldraw/odm/2003">
 <defs>
  <style type="text/css">
   <![CDATA[
    .fil0 {fill:#F08143}
    .fil1 {fill:white}
   ]]>
  </style>
 </defs>
 <g id="Layer_x0020_1">
  <metadata id="CorelCorpID_0Corel-Layer"/>
  <g id="_828876912">
   <path class="fil0" d="M102.6544 3.4141c-3.0568,-1.3199 -6.3496,-1.9785 -9.7622,-1.9785 -3.414,0 -6.6513,0.6586 -9.7627,1.9785 -2.9965,1.2594 -5.6288,3.1169 -7.9652,5.4473 -2.2747,2.3359 -4.0734,4.9742 -5.3319,8.0253 -1.3195,3.1169 -1.9781,6.3492 -1.9781,9.8235 0,3.4125 0.6586,6.6503 1.9781,9.8223 1.2585,2.9957 3.0572,5.6894 5.3319,8.0249 2.3365,2.3364 4.9687,4.0743 7.9652,5.3927 3.1113,1.3142 6.3487,1.9744 9.7627,1.9744 3.4126,0 6.7054,-0.6602 9.7622,-1.9744 2.9956,-1.3183 5.6893,-3.0563 7.9643,-5.3927 2.276,-2.3355 4.0738,-5.0292 5.3324,-8.0249 1.3139,-3.172 2.0347,-6.4098 2.0347,-9.8223 0,-3.4743 -0.7208,-6.7066 -2.0347,-9.8235 -1.2586,-3.0511 -3.0564,-5.6894 -5.3324,-8.0253 -2.275,-2.3364 -4.9687,-4.188 -7.9643,-5.4473z"/>
   <path class="fil1" d="M103.193 2.0942c-3.2375,-1.434 -6.7067,-2.0942 -10.3007,-2.0942 -3.5349,0 -7.0088,0.6602 -10.3021,2.0942 -3.1772,1.3199 -5.931,3.2322 -8.3883,5.689 -2.4507,2.4584 -4.3088,5.273 -5.6889,8.504 -1.3739,3.2988 -2.0938,6.7727 -2.0938,10.423 0,3.594 0.7199,7.0684 2.0938,10.3613 1.3802,3.1775 3.2382,6.0523 5.6889,8.5035 2.4573,2.4572 5.2111,4.3751 8.3883,5.6953 3.2933,1.373 6.7672,2.0938 10.3021,2.0938 3.5885,0 7.0632,-0.7208 10.3007,-2.0938 3.1719,-1.3202 5.9259,-3.2381 8.4433,-5.6953 2.3969,-2.4512 4.3148,-5.326 5.6288,-8.5035 1.3794,-3.2929 2.0998,-6.7672 2.0998,-10.3613 0,-3.6503 -0.7204,-7.1242 -2.0998,-10.423 -1.3139,-3.231 -3.2318,-6.0456 -5.6288,-8.504 -2.5174,-2.4512 -5.2715,-4.3691 -8.4433,-5.689zm-10.3007 -0.6586l0 0c3.4126,0 6.7054,0.6586 9.7622,1.9785 2.9956,1.2594 5.6893,3.1169 7.9643,5.4473 2.276,2.3359 4.0738,4.9742 5.3324,8.0253 1.3139,3.1169 2.0347,6.3492 2.0347,9.8235 0,3.4125 -0.7208,6.6503 -2.0347,9.8223 -1.2586,2.9957 -3.0564,5.6894 -5.3324,8.0249 -2.275,2.3364 -4.9687,4.0743 -7.9643,5.3927 -3.0568,1.3142 -6.3496,1.9744 -9.7622,1.9744 -3.414,0 -6.6513,-0.6602 -9.7627,-1.9744 -2.9965,-1.3183 -5.6288,-3.0563 -7.9652,-5.3927 -2.2747,-2.3355 -4.0734,-5.0292 -5.3319,-8.0249 -1.3195,-3.172 -1.9781,-6.4098 -1.9781,-9.8223 0,-3.4743 0.6586,-6.7066 1.9781,-9.8235 1.2585,-3.0511 3.0572,-5.6894 5.3319,-8.0253 2.3365,-2.3304 4.9687,-4.188 7.9652,-5.4473 3.1113,-1.3199 6.3487,-1.9785 9.7627,-1.9785z"/>
   <polygon class="fil1" points="108.4041,8.6854 108.1014,8.4433 106.0681,9.0429 106.4862,9.2846 "/>
   <path class="fil1" d="M98.5211 3.535l-0.3629 -0.1209 -3.4081 5.9918 0 -0.5445 2.0938 -5.6894 -0.363 -0.1153 -1.7915 4.9686 -0.4842 0 1.0236 -5.0899 -0.3635 -0.0606 -1.0176 5.1505 -0.4176 0 0 -5.2107 -0.3617 0 0 5.2107 -0.4178 0 -0.8359 -5.1505 -0.3626 0 0.8408 5.1505 -0.4782 0 -1.6757 -5.0293 -0.363 0.0547 1.8572 5.4533 0 0.7204 -3.1775 -5.9922 -0.4177 0.1212 3.5951 6.5858 0 0.5433 -5.0296 -6.7716 -0.3626 0.0607 5.0353 6.8263 -6.5906 -6.2873 -0.3571 0.1815 7.1837 6.8263 -8.9221 -6.0468c-0.1208,0.0607 -0.2417,0.1157 -0.4177,0.1759l8.9819 6.0524 -0.357 0 0.0603 -0.0607 -10.6635 -4.7927 -0.3578 0.2421 10.3026 4.6112 -0.4788 0 -7.7281 -2.0391 -0.0606 0.3634 6.4082 1.7364 0 0.4181 -7.0081 -0.7811 -0.1209 0.363 7.129 0.7755 0 0.363 -7.6675 0.4181 -0.1761 0.3558 7.8435 -0.4165 0 0.4165 -8.9818 1.9194 0.0601 0.3574 8.9218 -1.9138 0 0.4786 0.3028 0 -8.4433 3.2925 -0.0604 0.4185 9.5213 -3.7109 0.4782 0 -8.5039 4.9084 0.2421 0.2418 8.981 -5.1502 0.2361 0c-2.8146,2.3356 -5.6892,4.6112 -8.5034,6.9487l0 0.4771 9.103 -7.3655 -6.2284 6.8884 0.1813 0.3562 6.0471 -6.7058 0 0.1157 -5.0899 7.9097 0.1813 0.3574 4.9087 -7.6073 0 0.5378 -4.2537 9.8842 0.1814 0.4181 4.0723 -9.4 0 1.4352 -2.4567 9.5802 0.3019 0.0607 2.1548 -8.2012 0 1.7364 0.6598 0 -0.6598 6.888 0.3575 0.0607 0.66 -6.9487 1.0212 0 0.5394 6.9487 0.3573 0 -0.5392 -6.9487 0.7208 0 0 -1.9785 2.1548 8.6248 0.357 -0.0607 -2.5118 -9.9982 0 -1.5019 3.9526 9.2851 0.0593 -0.5992 -4.0119 -9.6412 0 -0.3574 4.908 7.904 0.1819 -0.4782 -5.0898 -8.0855 0 -0.1213 5.9858 6.8279 0.1821 -0.3574 -5.6893 -6.4705 8.9216 7.3655 0.0604 -0.4181 -8.861 -7.3651 0.3573 0 9.1623 5.4473 0.0606 -0.3578 -8.5642 -5.0895 0.4784 0 9.0484 3.5892 0.1153 -0.357 -8.1402 -3.2322 0.1759 0 0 -0.3574 8.206 1.8533 0.1156 -0.3574 -8.3216 -1.9195 0 -0.3574 8.0249 0.4783 -0.1209 -0.3574 -7.904 -0.4771 0 -0.363 7.1286 -0.7148 -0.1214 -0.3629 -7.0072 0.7203 0 -0.418 6.5291 -1.8573 0.1208 -0.4181 -7.3102 2.0938 -1.3143 0 10.2417 -4.4903 -0.3631 -0.2421 -10.7186 4.7324 8.9216 -5.8102 -0.3573 -0.1816 -8.8619 5.7497 7.2448 -6.5251 -0.3575 -0.1196 -7.0683 6.2873 5.6288 -6.8263 -0.3575 -0.1815 -5.2713 6.4098 0 -0.1816 3.771 -6.5857zm-4.4918 8.6795l0 0 3.3537 0 0 1.3794 -3.3537 0 0 7.427 -1.6756 0 0 -7.427 -3.3531 0 0 -1.3794 3.3531 0 0 -3.4687 1.6756 0 0 3.4687zm-2.4563 -1.3746l0 0 0.0602 0 0 0.0603 -0.0602 -0.0603z"/>
   <polygon class="fil1" points="103.4351,24.6755 103.4902,24.1972 102.2966,22.8178 102.2359,23.2961 "/>
   <polygon class="fil1" points="114.5111,17.3705 113.7301,17.189 113.7301,17.5464 114.6319,17.7881 "/>
   <polygon class="fil1" points="113.3125,20.3606 113.0759,20.6638 115.7691,21.74 115.709,21.3231 "/>
   <polygon class="fil1" points="109.4822,26.1107 109.2398,26.3528 109.3008,26.4134 115.4685,31.4426 115.5286,31.0852 "/>
   <polygon class="fil1" points="111.6363,23.3567 111.5154,23.7145 116.1271,26.4134 116.1271,25.995 "/>
   <polygon class="fil1" points="110.5584,40.9088 110.7396,40.6064 105.6501,32.339 105.4686,32.761 "/>
   <polygon class="fil1" points="113.6152,36.3507 113.7912,35.9933 107.146,28.3863 106.7885,28.5679 "/>
   <polygon class="fil1" points="103.2536,35.9933 102.891,36.2358 106.4252,44.618 106.7279,44.3763 "/>
   <path class="fil1" d="M77.8582 8.3827l-0.3023 0.3028 2.5772 0.6598c0.1216,-0.1208 0.2976,-0.1815 0.4791,-0.2421l-2.754 -0.7204z"/>
   <polygon class="fil1" points="71.5086,17.0681 71.3877,17.4858 72.4656,17.2497 72.4656,16.8867 "/>
   <polygon class="fil1" points="70.19,21.4991 70.1352,21.9215 73.0655,20.724 72.9498,20.4819 72.9498,20.4213 "/>
   <polygon class="fil1" points="69.7723,26.05 69.7723,26.4134 74.8019,23.5386 74.8019,23.1202 "/>
   <polygon class="fil1" points="76.7197,26.4134 76.4187,26.2315 70.3718,31.1454 70.4927,31.5029 "/>
   <polygon class="fil1" points="84.0254,23.3567 83.9652,22.8178 83.0693,23.8956 83.1296,24.3739 "/>
   <polygon class="fil1" points="84.5045,26.1708 84.1472,26.6499 84.4494,26.8917 84.5648,26.6499 84.5648,26.1708 "/>
   <polygon class="fil1" points="79.1778,28.7489 78.8152,28.628 72.1689,36.0538 72.2898,36.3507 "/>
   <polygon class="fil1" points="80.7937,32.5204 80.7331,31.9816 75.1644,40.6064 75.4011,40.9088 "/>
   <polygon class="fil1" points="83.4869,35.9933 83.1902,35.8724 79.413,44.5574 79.7155,44.7397 "/>
   <path class="fil1" d="M109.4217 8.3827l-0.6603 -0.0607c-0.2364,0.182 -0.4177,0.5394 -0.4177,1.0782 0,0.363 0.0604,0.8413 0.2417,1.4999l0.3575 2.156c-0.0607,0.0607 -0.1213,0.0607 -0.1816,0 -0.176,-0.0607 -0.4177,-0.3028 -0.599,-0.5996 -0.176,-0.3574 -0.2973,-0.6598 -0.2973,-0.8356 -0.0606,-0.545 -0.3575,-1.1385 -0.8951,-1.6817 -0.5992,-0.7148 -1.1987,-0.957 -1.7377,-0.7755 -0.4842,0.1208 -0.4842,0.4181 -0.182,0.8963l0.7755 1.1975c0.2422,0.4787 0.4234,0.9569 0.4234,1.3806 0.1156,1.1373 0.7759,2.2151 2.0945,3.3522l0.3571 0.357c1.1385,2.5781 1.3186,4.5526 0.539,5.9922 -0.2367,-1.6757 -0.6599,-3.1776 -1.1988,-4.436l-0.5389 -1.4352c-0.2365,-0.4779 -0.4165,-0.5979 -0.6587,-0.4177 -0.4786,0.8361 -0.5392,1.8529 -0.2364,2.9355l0.3573 1.3746c0.1213,0.5393 0.1817,1.0782 0.1817,1.5609l-0.3026 1.7981c-0.2968,1.1919 -0.6601,1.7368 -1.1384,1.7368 0.1816,-0.5995 0.3025,-1.7368 0.363,-3.2988l0.1153 -1.973 -0.1153 -0.5987c-0.0606,-0.3032 -0.1209,-0.3582 -0.3023,-0.1216 -0.2973,0 -0.5395,0.2425 -0.8362,0.7203 -0.2421,0.3574 -0.4181,1.0177 -0.5982,1.8577l-0.478 2.1548c-0.3633,1.7978 -1.199,2.6945 -2.3969,2.8142l0.12 -1.7364c0,-0.7208 0.0604,-1.2581 0.1166,-1.6761l0.2405 -1.2594c0.1213,-0.7754 0.1815,-1.2581 0.1213,-1.3734l-0.4181 0 -0.3618 0.357c0,0 -0.0604,0.0595 -0.1812,0.1201 -0.836,1.2593 -1.3144,2.8142 -1.4359,4.5518 -0.6594,2.4572 -1.4939,3.4747 -2.3356,3.1117 0,-0.061 -0.0606,-0.1759 -0.1816,-0.1759 -0.236,-0.061 -0.5388,-0.061 -0.9568,0l-0.1197 0 -0.2366 0.0606 -1.677 0.2362c-0.1819,-0.1153 -0.6601,-0.1756 -1.5002,-0.1756l-1.6171 0.1153c-0.418,-0.3578 -0.8946,-0.4185 -1.3734,-0.1153l-0.0602 0c-1.4411,-0.3634 -2.2813,-1.2593 -2.5781,-2.7539l-0.2975 -1.9801c-0.1813,-0.7192 -0.3626,-1.3794 -0.6595,-1.7364 -0.5394,-0.8417 -1.0176,-1.2586 -1.3188,-1.1385 -0.1814,0.0603 -0.3023,0.1815 -0.3023,0.4783l0 0.0602 0.4232 2.9355c0.1747,1.738 0.2956,2.5725 0.2956,2.5122 -0.8946,-0.4775 -1.5549,-0.9553 -1.7966,-1.4947 -0.2968,-0.4783 -0.5392,-1.5564 -0.8359,-3.1716 -0.2422,-1.3806 -0.5981,-2.3363 -1.0766,-2.9355 -0.3029,-0.3633 -0.6599,-0.5393 -1.0174,-0.5393 -0.1211,0 -0.1211,0.1217 -0.1815,0.176 0,0.1819 0.0604,0.6602 0.1815,1.4411 0.1761,0.7192 0.2362,1.1971 0.1761,1.3731 -0.0607,0.0609 -0.0607,0.5393 0,1.381l0.1815 2.0938c-0.6606,-0.4177 -1.0177,-0.8964 -1.0781,-1.5561l0 -0.3562c-0.2418,-0.363 -0.3026,-1.3806 -0.2418,-3.2382 0.0602,-1.7376 0.1209,-2.6326 0.2418,-2.6929 0.1814,-0.1823 0.1814,-0.7208 -0.0604,-1.4963 -0.0606,-0.363 -0.2422,-0.5389 -0.4169,-0.5991 -0.1815,-0.0607 -0.4177,0.1759 -0.5385,0.7144 -0.2425,0.6602 -0.3634,1.1986 -0.4184,1.738 0,0.3016 -0.2422,0.9609 -0.6599,2.0391l-0.3028 2.3359c-0.6598,-1.379 -0.7201,-2.8747 -0.2968,-4.4297 0.2968,-1.1385 0.7151,-2.0407 1.3143,-2.7595 0.7204,-0.7755 1.2582,-1.4959 1.5604,-2.0954l0 -0.1213c0,-0.2361 0.2362,-0.7132 0.5995,-1.4943l0.8362 -1.3199c0.1814,-0.2365 0.2417,-0.477 0.1814,-0.653 -0.0605,-0.1815 -0.1814,-0.363 -0.3633,-0.4237 -0.5935,-0.1153 -1.0778,0.2422 -1.556,1.1373 -0.3563,0.9019 -0.7795,1.5617 -1.1373,2.0403 -0.5389,0.7132 -0.9015,0.8345 -1.0774,0.1209 0.2417,-0.6598 0.4177,-1.4408 0.4177,-2.3977 0,-0.4165 -0.0604,-0.7192 -0.2362,-0.8401 -0.2425,-0.0607 -0.4842,0 -0.7814,0.3024l-0.1209 0.176c-0.774,1.9182 -1.1978,3.3578 -1.1373,4.3143l0.182 0.7755c0.0606,0.3028 0.0606,0.5446 0.0606,0.6602 -0.4184,1.7966 -0.7208,2.6383 -0.781,2.6383 -0.2972,-0.3574 -0.4791,-1.0778 -0.4181,-2.0347l-0.5394 -1.6818c-0.3011,-0.775 -0.5979,-1.138 -0.9554,-1.193 -0.3629,-0.0607 -0.4841,0.1152 -0.4841,0.4782 0,1.738 0.0606,3.172 0.1212,4.4314 0.1209,0.84 0.2421,1.4344 0.3029,1.6155 0.1151,0.2422 0.357,0.539 0.7737,0.8417 0.3626,0.2365 0.5993,0.4782 0.6598,0.6586 0.8413,2.6342 1.5566,4.2494 2.1548,4.7887 0.1209,0.1213 0.3626,0.1816 0.7201,0.3024 0.2425,0.1157 0.4184,0.2969 0.6601,0.4771 0.5996,0.8417 1.4948,1.3806 2.6332,1.6168l1.138 0.1822c0.3619,0.1145 0.5433,0.1756 0.5983,0.2968 0.2417,0.4177 1.4409,0.9004 3.535,1.4396l0.841 0.9561c-0.841,-0.5991 -1.9179,-1.0778 -3.1772,-1.3195 -0.478,-0.1759 -1.0172,-0.2365 -1.6153,-0.2968 -0.9572,0 -1.3806,0.176 -1.3198,0.5385 0.3626,1.7986 0.9018,3.1118 1.5603,4.135 0.8362,1.197 2.0348,1.9729 3.5291,2.3355l1.0778 0.2361c0.4842,0.0607 0.7814,0.2426 0.8417,0.4241 0.2956,0.7136 0,2.6331 -0.902,5.8654l-0.8357 3.2968c-0.3028,1.0782 -0.3578,1.738 -0.3028,1.9139l1.2593 1.016 1.379 0.8415c0.6,0.4783 1.557,0.8417 2.6938,1.1385 0.5394,0.0603 0.8361,0.0603 0.902,-0.1208 0.3573,0.1811 0.539,0.0602 0.6541,-0.176 0.7811,0.176 2.9961,-0.4847 6.5901,-1.9198l1.0176 -0.3558c0.2417,0 0.4783,-0.0606 0.5992,-0.3629 0.1819,-0.4185 0,-1.7381 -0.5386,-3.8318l-0.5999 -1.4395c0,-1.2542 -0.2417,-2.5737 -0.7189,-3.953 -0.0606,-0.176 -0.0606,-0.4783 -0.0606,-0.7755 0.1209,-0.4783 0,-1.0216 -0.1759,-1.5545 2.033,0.357 3.83,-0.5449 5.4475,-2.6989 0.5981,-0.7759 1.0762,-1.6175 1.3791,-2.5122 0.2968,-0.7208 0.4176,-1.2593 0.3575,-1.562 -0.1158,-0.2973 -0.4181,-0.4783 -1.0177,-0.4783 -0.5377,-0.0607 -1.1372,0 -1.8573,0.1811 -1.797,0.4185 -2.996,1.0782 -3.5955,1.9802l-0.8953 1.077c0,-0.1217 0,-0.3634 0,-0.7208 0.0607,-0.241 1.2579,-1.077 3.6548,-2.5174l0.176 -0.1209 1.138 -0.3562c0.6,-0.2365 0.9626,-0.4181 1.0176,-0.4782 0.7191,0 1.6817,-0.4185 2.8792,-1.1991 1.0781,-0.7208 1.7925,-1.3187 2.0953,-1.9182l0.4181 -0.4783c0.7795,-0.7811 1.3188,-1.5549 1.4397,-2.3363 0.0551,-0.176 0.1153,-0.4177 0.3573,-0.7145 0.1209,-0.2421 0.2417,-0.4842 0.2417,-0.781 0,-0.241 0.176,-0.5984 0.5395,-1.1369l1.0762 -1.7384c0.1759,-2.2147 0.2364,-3.7755 0.1759,-4.6112 -0.0607,-0.9023 -0.3575,-1.2581 -0.7752,-0.9625 -0.3011,0.1815 -0.6586,0.7204 -0.8404,1.6223 -0.2365,0.8361 -0.3573,1.6757 -0.2968,2.5725l-0.1209 0.6602c-0.4181,-0.2425 -0.6606,-0.9019 -0.775,-1.9195 0.1144,-0.5377 0.176,-1.3187 0.176,-2.215 -0.0615,-1.2582 -0.2374,-2.2151 -0.6606,-2.8146 -0.3563,-0.4783 -0.5375,-1.1369 -0.6531,-1.9179l-0.2417 -0.6051zm-10.9608 29.4697l0 0 0 0.8345c-0.0607,0.3024 -0.0607,0.5995 0,0.8413 0.4782,1.3806 0.7187,2.6937 0.7187,3.8923l0.4784 1.1369c0.1819,0.3634 0.3633,1.0176 0.5392,1.9802 0.1817,1.0164 0.2418,1.7364 0.1209,1.9729l-0.1209 0.1213 -0.0602 0 -0.2972 -0.3578c-0.0604,-0.2418 0,-0.6598 0,-1.3196l-0.1819 -0.1212 -0.2417 -1.3132c-0.176,-0.1208 -0.2367,-0.3625 -0.2969,-0.5991 -0.0607,-0.3028 -0.1804,-0.3028 -0.1804,-0.1208 -0.0606,0.3024 -0.0606,0.6598 -0.0606,1.0777l0 1.1369c-0.3575,-0.9553 -0.5385,-1.9178 -0.5385,-2.9354 0.3023,-0.9554 0.4176,-1.8573 0.181,-2.5118l-0.2417 -0.7795c-0.1212,-0.2421 -0.1212,-0.4181 -0.176,-0.5991 -0.0602,-0.4791 0.0607,-1.2602 0.3575,-2.3364zm-3.4748 5.0895l0 0c0.1209,0.1819 0.1209,0.3578 -0.1759,0.4185 -1.2594,0.1815 -2.2812,0.1815 -3.0563,-0.0607 -0.1208,-0.3578 0.0607,-0.5394 0.4784,-0.4185l2.7537 0.0607zm2.2156 0.061l0 0c0.2417,0.2365 0.3023,0.5991 0,1.0762 -0.176,-0.1812 -0.176,-0.5374 0,-1.0762zm0.599 -1.6778l0 0c0.3028,0.6603 0.3635,1.32 0.1817,2.0352 -0.4181,-0.957 -0.539,-1.6778 -0.1817,-2.0352zm-0.3573 7.0644l0 0c-0.7204,-1.9729 -0.902,-3.1113 -0.5995,-3.2928 0.4786,0 0.6601,1.1384 0.5995,3.2928zm-4.0734 -2.0335l0 0c0.0602,0.4169 0.0602,1.0762 -0.0596,1.8577l-0.0606 1.6155 0.0606 0.781c-0.0606,0.2968 -0.1209,0.357 -0.242,0.2361 -0.0548,-0.1208 -0.1761,-0.4778 -0.2362,-1.0777 -0.0607,-0.4164 0,-1.1368 0.0602,-2.1543 0.0607,-0.8964 0.0607,-1.4392 -0.0602,-1.6152l0.0602 -1.381c0,-0.5389 0.1761,0.061 0.4776,1.738zm-6.5299 -14.8532l0 0 0.2427 0.1209c0.6586,0.4185 1.0155,0.7759 1.0762,1.077 -0.3575,-0.4771 -0.8402,-0.9011 -1.3189,-1.1979zm-0.1759 3.535l0 0c0.0604,-0.1208 0.0604,-0.2417 0,-0.2417l-0.8408 -0.0603c-0.1759,-0.0614 -0.3582,-0.1759 -0.479,-0.3582 -0.4177,-0.357 -0.6587,-0.72 -0.7189,-0.9561 -0.0606,-0.3032 0.1812,-0.1823 0.7189,0.357 0.1208,0.1759 0.3573,0.4181 0.7809,0.6598l0.7752 0.4185 -0.1759 0.2417 -0.0604 -0.0607zm3.5294 0.2366l0 0 -0.3573 0.1208 -0.3579 -0.2361c0,-0.1816 0.1759,-0.2421 0.5394,-0.1213l0.1759 0.2366zm0 12.4003l0 0 0.1209 0.5992c0.1213,0.2365 0.1213,0.2365 0.0606,0 0,0.1759 0.1209,-0.1812 0.2406,-1.0228l0.1759 -1.8521c0.2421,-0.9625 0.4848,-1.3199 0.7208,-1.1385l-0.1819 3.1716c-0.176,-0.0603 -0.2969,0.061 -0.4782,0.3578 -0.0607,0.3028 -0.1154,0.539 -0.1154,0.7807l-0.3011 2.3964c-0.2968,0.0607 -0.4784,-0.0603 -0.4784,-0.5385l0.0604 -0.9019c0,-0.3562 0,-0.6534 -0.0604,-0.8951 -0.1211,-0.3578 -0.2424,-0.061 -0.3573,0.8951l-0.1217 1.0227c-0.1811,0.1157 -0.3019,-0.1208 -0.4778,-0.5994 0.0547,0.1153 0.0547,-0.1816 0.176,-0.9609l0 -0.6602 0.2417 -0.8968c0.1759,-0.5991 0.236,-1.0762 0.1759,-1.3786 -0.1759,-0.4181 0,-1.2537 0.3633,-2.5118 0.2362,-0.1213 0.2969,0.5374 0.2969,2.0938 -0.2365,0.5394 -0.2365,1.2582 -0.0607,2.0391zm1.8576 0.896l0 0 0 -1.2594c-0.1155,-0.8947 -0.0605,-1.4938 0.0604,-1.7364 0.5392,0.7811 0.5999,2.5178 0.2422,5.3319 -0.0607,0 -0.1213,0.0603 -0.1817,0.1209 -0.3573,-0.1816 -0.3573,-1.0171 -0.1209,-2.4571zm-0.418 2.3964l0 0 -0.1811 0.0607c-0.061,0 -0.061,0.1208 -0.061,0.2365l-0.2968 0c0.1209,-1.7969 0.2361,-2.6325 0.4787,-2.4511 0.0602,0.4783 0.0602,1.1975 0.0602,2.1539zm-2.6934 -4.4296l0 0c-0.2417,-1.8585 -0.1814,-2.8748 0.176,-3.1772 0.2417,0.0602 0.2417,1.0762 -0.176,3.1772zm20.0032 -37.8521l0 0 0.182 -0.0607 0.1759 0.4181c0.1209,0.8413 0.3626,1.5549 0.7187,2.0331 0.3026,0.4843 0.539,1.2598 0.539,2.336 0.0604,1.0232 0,1.8592 -0.1815,2.519 0.1815,1.2581 0.545,2.0331 1.0834,2.2756 0,0.1816 0,0.3024 0.0551,0.3024 0.1209,0 0.1815,-0.1208 0.3023,-0.363 0.1218,-0.1759 0.182,-0.5393 0.2427,-0.9569 0,-0.6602 0.0601,-1.4396 0.236,-2.2757 0.2421,-1.0172 0.4826,-1.5616 0.7795,-1.6773 0.1816,0.1157 0.2422,1.0782 0.1816,2.695l-0.1816 2.5173 -0.9004 1.4947c-0.4786,0.7208 -0.7151,1.1991 -0.7151,1.4959 0,0.1803 -0.1208,0.4221 -0.2417,0.7188l-0.3033 0.7208c-0.1759,0.5995 -0.4779,1.1385 -0.896,1.6155l-0.9556 1.0778c-0.363,0.539 -1.0774,1.1991 -2.1601,1.9179 -1.2537,0.7152 -2.1555,1.0782 -2.6932,0.9569l-0.0604 0.3574 -0.0606 -0.176c-0.1208,0.0607 -0.4177,0.2366 -0.957,0.4177l-1.0176 0.2977 -0.1209 0.1208 -2.2147 1.3187c-1.0768,0.72 -1.6761,1.1987 -1.7363,1.5561 -0.0609,0.4221 0,0.7795 0.1149,0.9003 0.182,0.2366 0.4787,0.176 0.8405,-0.2417l0.599 -0.84c0.5995,-0.8964 1.6774,-1.4959 3.3536,-1.793l1.6761 -0.1816c0.4781,0 0.7204,0.1213 0.781,0.2421 0.0603,0.2366 -0.0606,0.7152 -0.3633,1.4352 -0.3575,0.8405 -0.8345,1.6156 -1.3731,2.3364 -1.6228,2.0938 -3.2989,2.935 -5.151,2.5174l-0.0602 -0.1816c-0.2417,-0.3578 -0.3028,0 -0.3028,1.0778 -0.3575,1.016 -0.7807,1.9179 -1.32,2.6933 -0.176,0.2422 -0.3573,0.2422 -0.539,0.061l-0.3557 -0.479c-0.1213,0 -0.1213,0.0606 -0.1213,0.1815 0.477,0.8967 0.5378,1.6155 0.2422,1.9733 -0.3025,0.4839 -0.8416,0.4839 -1.6168,0.0607 -0.0606,-0.0607 -0.0606,-0.1156 0,-0.1759 0.5992,-0.1217 0.7752,-0.4843 0.6543,-1.077 -0.0551,-0.6594 -0.2968,-0.7811 -0.5936,-0.4835 -0.8416,0.1209 -1.6761,0.1812 -2.3968,0.0603 -0.1815,-0.176 -0.3626,-0.176 -0.4177,0l-0.2417 0.6586c-0.061,0.4177 0.1811,0.72 0.7199,0.8417l0 0.3574c-1.5608,0.4177 -2.0993,-0.1816 -1.5608,-1.8577l-0.1153 -0.2972 -0.2417 0.4786c-0.6602,-0.0606 -1.0177,-0.7207 -1.199,-1.9194 -0.2362,-0.176 -0.4177,-0.0607 -0.539,0.4842 -0.0606,-0.1819 0,0.4783 0.1213,1.973 0.1815,0.7204 0.1209,1.1987 -0.1213,1.3802 -0.1213,0.0603 -0.1815,0 -0.3024,-0.1209 -0.055,-0.1815 -0.1157,-0.418 -0.1157,-0.7208l-0.1815 0c-0.18,0.3634 -0.18,0.7811 0,1.0778 0.1213,0.2426 0.2422,0.6 0.2422,1.0782 0.1208,0.598 0.1759,1.1373 0.1759,1.6758 0.1209,1.5002 0.1209,2.8751 -0.0607,3.9573 -0.3573,0 -0.5373,-0.1803 -0.4769,-0.5377 0.2409,-1.5019 0.2409,-2.7591 -0.0604,-3.6559l0 -0.6602c-0.176,-0.5389 -0.3573,-0.5389 -0.4787,0.1217l-0.4181 3.1716c-0.0606,0.5385 -0.2417,0.8412 -0.4781,0.8412l-0.4177 -0.3028c-0.0607,-0.2361 0.0546,-0.72 0.236,-1.4352l1.32 -5.0352c0.477,-2.154 0.6587,-3.5896 0.5378,-4.3085l0.0602 -0.0607c0,-0.1819 0.0607,-0.5389 0.2421,-1.0778 0,-0.7204 0.1154,-1.0778 0.4787,-1.0778 0,0.3574 0.1208,0.72 0.4176,0.9569 0.3575,0.3025 0.7812,0.3574 1.1992,0.3025l0.1799 0.1759c0.1157,0.1816 0.2366,0.3626 0.2972,0.5991l0.1208 0.1213 0.2427 -0.1213c0.1148,-0.2365 0.1148,-0.6594 -0.061,-1.3199 -0.2421,-1.0762 -0.5447,-1.6757 -1.0217,-1.9122 -0.4176,-0.1816 -0.8361,0.0606 -1.2538,0.7207 -0.0606,-0.1208 -0.1208,-0.1815 -0.1814,-0.2417l-0.2422 -0.0614c0.1213,-0.1208 0.1213,-0.357 0.0603,-0.5991 -0.5992,-0.1811 -1.0157,-0.4779 -1.2578,-0.8413 -0.6546,-0.7136 -1.3143,-1.1918 -2.0347,-1.4343 -0.6586,-0.2418 -0.7191,-0.0603 -0.1815,0.479 0.3626,0.1209 0.7208,0.4177 1.0777,0.7795 0.3025,0.4177 0.363,0.5995 0.1209,0.5995l-0.6601 -0.4237 -0.5386 -0.5939c-0.774,-0.6586 -1.5552,-1.1373 -2.2151,-1.379 -0.7191,-0.2968 -0.9554,-0.2417 -0.7798,0.0603 -0.0603,0.1212 0.1803,0.3024 0.5376,0.5999 0.4241,0.2968 0.545,0.4783 0.4241,0.5991 -0.4791,-0.1815 -0.6605,-0.1815 -0.5392,0.0603 0.1759,0.1804 0.5392,0.4775 1.1985,0.7192 -0.544,0.0607 -0.7199,0.176 -0.544,0.2976 0.1814,0.1812 0.4834,0.2418 0.9625,0.2969l0.2968 0.4232c-1.0176,0 -0.957,0.176 0.2417,0.5996l0.477 0.0606 0.2421 0.176c-0.4826,0.0603 -0.6586,0.1209 -0.5433,0.2417l0.9004 0.4771c0.3582,0 0.7208,0.3024 1.1995,0.8417l-0.3028 0 -0.8968 -0.1816c-1.4388,-0.3578 -2.5166,-1.1373 -3.2981,-2.2756 -0.7136,-0.957 -1.1922,-2.2753 -1.4943,-3.9526 0.0604,-0.0607 0.2417,-0.1213 0.5995,-0.1213 1.0762,0 2.2147,0.2421 3.4727,0.7815 1.2594,0.5385 2.2163,1.1986 2.9355,2.0331 0.1209,0.0607 0.1817,0.1209 0.3025,0.0607 0.176,-0.0607 0.2365,-0.176 0.2365,-0.2972 0.1213,-0.1804 -0.0606,-0.5374 -0.539,-0.9008 -0.1759,-0.1815 -0.4165,-0.3574 -0.7136,-0.5991 -0.2417,0 -0.5995,-0.3574 -1.0834,-0.9569l-0.1152 -0.1213c-0.3032,-0.4165 -0.4843,-0.4767 -0.424,-0.1799 -1.7971,-0.4181 -2.8142,-0.7755 -2.9901,-1.1385 -0.1208,-0.176 -0.4234,-0.3574 -0.9008,-0.4783l-0.9565 -0.1815c-1.0781,-0.176 -1.9785,-0.6602 -2.5785,-1.434l-0.4779 -0.4783 -0.5999 -0.2425c-0.4782,-0.2366 -1.016,-1.0176 -1.5553,-2.5114l-0.7802 -2.3363c-0.1156,-0.2418 -0.3579,-0.4783 -0.7152,-0.7204 -0.3617,-0.3024 -0.6586,-0.539 -0.7794,-0.7204 -0.0607,-0.1756 -0.1209,-0.7204 -0.2418,-1.5549 -0.0609,-1.199 -0.1157,-2.6386 -0.1157,-4.3766l0.0607 -0.1153c0.236,0 0.4781,0.4181 0.7144,1.1385l0.4769 1.434 0.1209 1.1384c0.1212,0.5386 0.3032,0.902 0.4186,1.1385l0.4231 0c0.176,-0.2365 0.3575,-0.6606 0.5937,-1.4959l0.3633 -1.4396c0,-0.1759 0,-0.4176 -0.0603,-0.6602 -0.2424,-0.6542 -0.1815,-1.5564 0.0603,-2.5118l0.8345 -2.4568 0.4181 -0.2421c0.0602,0.1209 0.0602,0.2421 0.0602,0.4839 0,0.5927 -0.0602,1.1373 -0.236,1.6761l-0.2422 0.7148c0.1213,0.5433 0.3573,0.7795 0.6606,0.8401 0.5385,0.0606 1.138,-0.598 1.7965,-1.9179l0.8357 -1.3187c0.2422,-0.3574 0.545,-0.539 0.7208,-0.539 0.2417,0.0607 0.3021,0.2422 0.0604,0.4237l-0.8357 1.4943c-0.4237,0.7755 -0.6603,1.375 -0.6603,1.6171 -0.3011,0.598 -0.7795,1.2582 -1.4395,2.0332 -0.6603,0.7207 -1.1385,1.7364 -1.4352,2.9964 -0.4771,1.7364 -0.3013,3.3531 0.4782,4.8529 0.0607,0.2366 0.2426,0.2968 0.3032,0.1213 0.1154,-0.0607 0.176,-0.5446 0.3571,-1.4408l0.1759 -1.4344c0.2417,-0.6594 0.4839,-1.4404 0.6599,-2.2207l0.4236 -1.4958 0.176 -0.4177c0.0606,0.1208 0.1208,0.3574 0.1802,0.6602 0.0607,0.3574 0.0607,0.5991 0,0.72 -0.1802,0.2968 -0.2405,1.3135 -0.3011,3.0511 -0.0607,1.8577 0,2.9351 0.2417,3.3535l0 0.1815c0.0594,0.8345 0.5983,1.5549 1.6159,2.0387l0.1812 0.061 0.0606 -0.3032 -0.0606 -0.5385 -0.2417 -2.8748 0 -0.1217c0.0606,-0.1209 0.0606,-0.5385 -0.0607,-1.2577l-0.236 -1.5565c0.6541,0.182 1.193,1.2597 1.5561,3.172 0.2955,1.6817 0.5978,2.8202 0.8344,3.2985 0.3633,0.5995 0.9625,1.1372 1.9797,1.6757 0.0594,0 0.1803,0 0.3016,-0.1209 0.1759,-0.2417 0,-2.154 -0.4827,-5.6894l0.0603 -0.1811c0.1803,0 0.4772,0.3024 0.9004,0.9625 0.2369,0.357 0.4184,0.8964 0.6,1.6164 0.2968,1.7368 0.5385,2.7539 0.6601,3.1101 0.4783,1.0232 1.3128,1.6167 2.5721,1.9194l0.182 0 0.0603 -0.0602c0.418,-0.2426 0.7147,-0.1217 1.0765,0.1811l0.1759 -0.2417c0,0.1208 0,0.1815 0.0604,0.1815l1.3801 -0.0607 1.3186 0.0607c0.1761,0.2362 0.8366,0.176 2.0959,-0.1815l1.0156 0 0.1217 0.1208c0.7199,0.3574 1.4352,0 2.033,-1.1986 0.3626,-0.5996 0.6599,-1.3187 0.902,-2.1548 0.1213,-1.7364 0.5991,-3.1772 1.3807,-4.4352l0.2968 -0.2366 -0.3575 2.1544c-0.0606,0.4181 -0.1209,1.0164 -0.1209,1.8581 0,0.7747 -0.1208,1.4352 -0.1814,1.7978l0.363 0.1152 -0.1213 0.0595 0.1213 0c0.5373,-0.0595 0.9553,-0.2353 1.3131,-0.4165 0.7807,-0.5393 1.3198,-1.556 1.6167,-3.1113l0.3614 -1.8593c0.1212,-0.7187 0.3575,-1.2581 0.5389,-1.6155 0.182,-0.3626 0.3578,-0.5385 0.5395,-0.5385 0.0601,0.5385 0.0601,1.556 -0.0607,3.0507 -0.1209,1.5011 -0.2968,2.3961 -0.4184,2.6989l0.2975 0.176 -0.1156 0.0607 0.2365 0c0.902,0 1.5605,-1.3188 1.7365,-3.8924 0.0606,-0.4771 0,-1.0161 -0.1154,-1.6156l-0.5377 -1.9178c-0.0607,-0.7152 0,-1.375 0.2972,-1.9746l0.598 1.6172c0.6601,1.3786 1.0777,3.1716 1.2593,5.271 0.836,-1.0228 1.1373,-2.2203 1.0765,-3.4739 0,-1.022 -0.3614,-2.2207 -0.9613,-3.6559l-0.5385 -0.4169c-1.1978,-1.0778 -1.797,-2.1556 -1.9187,-3.1169 -0.0543,-0.5995 -0.2967,-1.2593 -0.7751,-1.9741l-0.5995 -1.0766c0.1214,-0.2422 0.4787,-0.1816 1.1988,0.3574 0.6605,0.4782 1.0164,1.0766 1.0769,1.6757 0.0603,0.4787 0.3025,0.8967 0.6603,1.3806 0.3573,0.5377 0.7199,0.5923 0.9565,0.3562 0.1819,-0.1197 0.1819,-0.4771 0.1209,-1.016l-0.3575 -1.4412c-0.1209,-0.5979 -0.1815,-1.1369 -0.1815,-1.4943 0,-0.4181 0.0606,-0.6546 0.2421,-0.7148zm-14.3746 35.872l0 0 0.1209 0.1823c0.0607,0.2361 0.0607,0.5385 0.0607,0.8959 -0.0607,0.2421 0,0.8413 0.1759,1.7364l0.1811 0.957 0.1217 1.5002 -0.1819 0.5995 -0.1817 0.1156 -0.1151 -0.3577c-0.0607,-0.4786 -0.1209,-1.1974 -0.1817,-2.0335 0,-0.6598 -0.0602,-1.1987 -0.1814,-1.5605 -0.182,-0.775 -0.2363,0 -0.1209,2.336l-0.061 1.3182 -0.1148 0.4787 -0.2427 0.0607 -0.1208 -0.2418c-0.0602,-0.1759 -0.0602,-0.4789 -0.0602,-1.0175l0.181 -1.4396c0.1213,-1.8521 0.1213,-2.9298 -0.1208,-3.1716 0,-0.1822 0.0607,-0.3032 0.2421,-0.3032 0.1819,0 0.2422,0.1816 0.2422,0.4843 0,0.2968 0.1156,0.3574 0.2365,0.0607 0.1208,-0.2418 0.1816,-0.4241 0.1208,-0.545 0,-0.0551 0,-0.0551 0,-0.0551zm1.9179 5.3927l0 0 -0.2417 -0.539 -0.4169 -2.6382c-0.3023,-1.797 -0.3629,-2.6937 -0.2418,-2.8146 0.1817,-0.0603 0.2418,0.2421 0.4177,0.9625l0.7193 4.9084 -0.2366 0.1209z"/>
   <path class="fil1" d="M100.918 24.8513c-0.0606,-0.4774 -0.1821,-0.5333 -0.2424,-0.1156 -0.2968,2.9354 -1.2593,4.7284 -2.8749,5.2111l-0.599 0 -0.1209 0.1208 0.0602 0.0551c-0.1152,0 0.2421,0.4233 1.1385,1.3802 1.3787,-0.72 2.2203,-2.2752 2.5781,-4.6112 0.1209,-0.781 0.1815,-1.4958 0.0606,-2.0403z"/>
   <path class="fil1" d="M105.3478 24.0169c0.0606,-0.6603 0.0606,-1.0782 -0.061,-1.2594 -0.0604,-0.1212 -0.1813,0.1209 -0.3571,0.7204 -0.2421,1.9179 -0.84,3.2929 -1.8576,4.0723 -0.3021,0.2361 -0.6603,0.418 -1.0779,0.5995l-0.5978 0.2365 -0.3025 0.5992 -0.3581 0.6602 2.0395 -0.957c0.6598,-0.3024 1.1935,-0.7204 1.6154,-1.199 0.539,-0.598 0.8357,-1.797 0.9571,-3.4727z"/>
   <path class="fil1" d="M108.2832 14.4958l0.6598 0.7152c0.5393,0.72 0.9569,1.7364 1.1974,2.935l0.4784 -0.1208c-0.4177,-1.1385 -0.5993,-2.1548 -0.5386,-2.9901 0.0602,-1.9789 -0.0607,-2.7543 -0.2409,-2.3363 -0.0604,0.7739 -0.2362,1.2581 -0.5386,1.4947l-0.7758 0.0602c-0.2418,0.0607 -0.3021,0.1209 -0.2418,0.2422z"/>
   <path class="fil1" d="M112.5385 18.509l-1.1989 0.8345c-0.3626,0.1819 -0.6,0.3028 -0.7812,0.2425 0.0604,0.8353 0,1.4955 0,1.9738 -0.242,1.0766 -0.6586,1.9182 -1.3186,2.4572l-0.1149 1.0156c1.0762,-0.6586 1.7905,-2.0938 2.1539,-4.4298 0.7751,-1.0774 1.2597,-1.7376 1.2597,-2.0938z"/>
   <path class="fil1" d="M108.3438 21.9215c-0.0606,0 -0.1208,0.0602 -0.1814,0.2361 -0.061,0.1819 -0.061,0.3634 0,0.4787 -0.1214,1.3806 -0.3578,2.3961 -0.7759,2.996 -0.4222,0.5991 -1.0217,1.0176 -1.7966,1.2593l-0.7208 1.0766c0.9568,-0.2421 1.738,-0.6602 2.3965,-1.1372 0.7754,-0.6603 1.199,-1.4352 1.2594,-2.3372 0.055,-1.6155 0,-2.4572 -0.1813,-2.5724z"/>
   <path class="fil1" d="M102.891 32.0422l0.4779 -0.3028c0.3032,-0.1157 0.4846,-0.2969 0.4846,-0.594 -0.0606,-0.1811 -0.3032,-0.2417 -0.7208,-0.1208 -0.4177,0.0606 -0.8417,0.2968 -1.3198,0.5991 -1.3187,0.8361 -2.1548,1.7978 -2.5174,2.9299 -0.4169,0.1822 -0.5927,0.6055 -0.5927,1.3794 0.0593,0.1208 0.4769,0.0603 1.1372,-0.1816 0.6543,-0.2968 0.896,-0.477 0.896,-0.5923 -0.1812,-0.1213 -0.2417,-0.2421 -0.1812,-0.3024l0.1209 -0.0607c0.9568,-0.2976 1.3186,-0.5393 1.0176,-0.7208 -0.2968,0 -0.4784,-0.0603 -0.4181,-0.2361l0.7799 -0.3032c0.3569,-0.1145 0.4787,-0.2969 0.4787,-0.4177 -0.4787,0.0607 -0.6603,0 -0.5395,-0.1816 0,-0.0603 0.176,-0.1759 0.4784,-0.2361 0.3578,-0.1804 0.6601,-0.3618 0.836,-0.4771 0.0603,-0.1208 -0.0551,-0.1815 -0.176,-0.1208l-0.2417 -0.0607zm-1.0176 0.5385l0 0c-0.1803,0.1201 -0.4169,0.3016 -0.5983,0.4775 -0.1812,0.2417 -0.2968,0.4177 -0.3571,0.5393l-0.0606 -0.1216c-0.0609,-0.0543 -0.1216,-0.0543 -0.1819,-0.0543 0,-0.3032 0.3633,-0.6606 0.9568,-1.0826 0.1805,0 0.241,0.0607 0.241,0.2417z"/>
   <path class="fil1" d="M104.0293 32.9975l-0.1155 -0.1759c-0.0604,-0.0607 -0.0604,-0.1209 0.0551,-0.241 0.4219,-0.1811 0.6035,-0.357 0.5428,-0.4778 -0.0602,-0.0607 -0.1209,-0.0607 -0.3011,-0.0607 0,-0.1209 0,-0.182 0.1209,-0.2425 0.2409,0 0.4168,-0.176 0.5377,-0.4783 0.0606,-0.2968 0,-0.4177 -0.2968,-0.357 -0.9004,1.4352 -1.6157,2.5717 -2.1605,3.2322 -0.5935,0.7204 -1.1971,1.2581 -1.797,1.4396l-0.0547 0.357c1.9735,-0.8341 2.93,-1.6758 2.8142,-2.5174 0.3578,-0.0543 0.5945,-0.2366 0.655,-0.4783z"/>
   <path class="fil1" d="M95.1677 33.8392c0.0609,-0.1209 0.1215,-0.1209 0.2424,-0.0607l0.2362 0.2365c0.1815,-0.2365 0.3016,-0.4177 0.3618,-0.7152l0.0606 0c0.0604,-0.3024 0.176,-0.363 0.4177,-0.363 0,0.0607 0,0.1816 0,0.363l0.5995 0c0.0607,0.3578 0.1761,0.6546 0.4181,0.8361l0.1209 0.7208c0.0606,0.1811 -0.0606,0.0603 -0.2418,-0.1823 -0.3573,-0.4176 -0.6601,-0.4778 -1.0176,-0.1208 -0.3618,0.2425 -0.5978,0.6602 -0.8399,1.2585 -0.2426,0.5995 -0.3578,1.0778 -0.4186,1.6164 0,0.424 0.0607,0.5999 0.2426,0.5449 0.1153,-0.4843 0.2968,-0.9019 0.5939,-1.1987 0.6587,-0.0606 1.0822,-0.1815 1.379,-0.363 0.2418,-0.1759 0.3629,-0.4184 0.539,-0.836l0.4787 -0.0603c0,-0.3016 0,-0.5983 0.181,-0.9553 -0.2968,-0.1823 -0.5388,-0.3634 -0.6597,-0.7208l-0.1761 -1.1385 -0.3024 -0.6586c-0.8967,-1.738 -1.9125,-2.4572 -3.1719,-2.0954l-1.379 0c-0.5998,0.9569 -0.7207,0.9569 -0.4785,0l-0.2422 0c-0.2968,0.5991 -0.5385,0.9569 -0.7204,1.0778 -0.1148,0.0606 -0.1759,0.0606 -0.2366,0 0,-0.1812 0.1218,-0.4843 0.4186,-0.8417 0,-0.0603 -0.0607,-0.1153 -0.2968,-0.1153l-0.4848 0.4181c-0.1209,0.2972 -0.4165,0.6598 -0.8341,1.0778l-0.8416 0.8361c0,0.3012 -0.0606,0.5373 -0.0606,0.8396l0.3023 0 0.2426 -0.1208c0.0602,-0.2418 0.176,-0.4177 0.3573,-0.4177 0.0604,0 0.1817,0.1759 0.3571,0.5385 0.1815,0.2366 0.3561,0.3582 0.4169,0.3582 0.0602,-0.5393 0.1209,-0.6606 0.3023,-0.479 0.1209,0.1815 0.2427,0.7208 0.4186,1.4352 0.0602,0.1208 0.1209,0.1208 0.1209,0.1208l0.0602 -0.2361c0.1208,-0.2417 0.2421,-0.2417 0.3025,0.1153l0.0551 1.2585c0.1814,0.1812 0.2417,0.3626 0.2417,0.6602 0.3032,-0.0607 0.3632,0.1209 0.0606,0.5992 0,0.0602 0.0607,0.1811 0.1217,0.1811 0.0542,0 0.0602,0.0607 0.0602,0.176 0,0.1819 -0.0602,0.2425 -0.1819,0.3633 0.0607,0.176 0.1819,0.3574 0.3027,0.3574 0.1158,0 0.2366,-0.1815 0.3575,-0.3574l0.1153 -1.6171c0,-0.3024 0.0606,-0.4835 0.1211,-0.4835l0.1805 0c0.0602,0.1209 0.0602,0.1812 0,0.3626l0.1208 1.6172c0.1152,0.3024 0.2969,0.4181 0.4782,0.3574 0.2362,0 0.2362,-0.0607 0.0604,-0.4181 -0.0604,-0.1213 -0.1209,-0.1819 -0.0604,-0.2972 0.0604,-0.0607 0.1154,-0.0607 0.2362,-0.0607 0.061,0 0,-0.1811 -0.2362,-0.3626 0,-0.2968 0.0604,-0.3574 0.2973,-0.2968 0.0606,-0.5999 0.2421,-0.902 0.599,-0.8417l0.3026 -1.9122zm-1.9179 1.1384l0 0c-0.1815,0.1816 -0.2362,0.3574 -0.2362,0.4771 -0.1815,0.0607 -0.363,0.1816 -0.4846,0.1209 0.1216,-0.4771 0.3633,-0.8397 0.7208,-0.9613 0.1201,0 0.1201,0.1216 0,0.3633zm2.9948 0.2969l0 0c0.1208,-0.2366 0.3575,-0.3574 0.5385,-0.2366 -0.2417,0.3574 -0.4177,0.4775 -0.5385,0.2366zm-3.5333 -1.0176l0 0c-0.0607,-0.176 0,-0.2969 0.1208,-0.4177 0.0602,-0.1209 0.2362,-0.1209 0.4177,-0.0607 -0.1209,0.3574 -0.2968,0.5389 -0.5385,0.4783z"/>
   <path class="fil1" d="M96.7831 37.2525c0,-0.0603 -0.0602,0.0607 -0.1209,0.4791l-0.1151 0.6582 0.9568 -0.7795c0.1815,-0.3578 0.2968,-0.6598 0.2362,-0.8963 -0.3571,0.2365 -0.7144,0.4176 -0.957,0.5385z"/>
   <path class="fil1" d="M73.725 16.8256c-0.1816,-0.1149 -0.2969,0 -0.2969,0.1217 -0.1816,1.5616 0.2969,2.7539 1.3738,3.5346l0.5992 0.9007c0.3633,1.4959 0.7203,2.4584 1.0176,3.0507 0.3614,0.8417 0.9003,1.32 1.4999,1.3802l-0.2418 -1.138c-1.1372,-0.9558 -1.797,-2.6938 -1.9123,-5.2111 -1.3809,-0.0607 -2.0394,-0.9554 -2.0394,-2.6387z"/>
   <path class="fil1" d="M81.7502 23.1202l-0.2967 -0.3626c-0.182,-0.0607 -0.2423,0.0603 -0.2423,0.4783 0.1214,3.957 1.6157,6.0524 4.4299,6.2885l-0.2968 -1.1381c-2.0939,-0.3574 -3.2914,-2.0938 -3.5941,-5.2662z"/>
   <path class="fil1" d="M86.065 25.4509c-0.1208,-0.3578 -0.2417,-0.5394 -0.3032,-0.5394l-0.1208 0.1816c0,1.8588 0.2424,3.2325 0.7208,4.3159 0.4176,0.9554 1.1989,1.7364 2.1543,2.2697 0.2422,-0.1153 0.4236,-0.2968 0.7811,-0.5334l0.4177 -0.5995c0.182,-0.1815 0.2424,-0.363 0.1213,-0.4783l-0.1761 -0.1208c-0.1819,-0.0607 -0.242,0 -0.3629,0.1759 -1.0176,-0.1759 -1.7365,-0.6586 -2.1545,-1.2581 -0.4786,-0.6542 -0.8416,-1.7926 -1.0777,-3.4137z"/>
   <path class="fil1" d="M89.9573 37.7918c0.0604,-0.3574 0,-0.4786 -0.3032,-0.3574 -0.4177,-0.1212 -0.7144,-0.4786 -0.9561,-1.0228 -0.0606,0.1209 -0.1216,0.3025 -0.0606,0.5442 0,0.2365 0.1209,0.4786 0.2417,0.6546 0.3573,0.5389 0.7208,0.5995 1.0781,0.1815z"/>
   <path class="fil1" d="M76.5396 13.236l-0.1209 0c-0.1158,0.7148 -0.0551,1.4356 0.0602,2.0958l-0.5936 3.0564 0.176 0.1759c0.1209,0.0603 0.2417,0 0.3025,-0.1759l0.5978 -1.7986c0.3575,-0.9554 0.8362,-1.797 1.557,-2.517l-0.061 -0.061c-0.8409,0.363 -1.4409,0.1213 -1.9178,-0.7755z"/>
   <path class="fil1" d="M78.4574 21.74c-0.1209,-0.1209 -0.1816,-0.1803 -0.1816,-0.0607 -0.7144,4.0739 0.4843,6.1677 3.6562,6.4102l-0.6605 -1.1979c-1.4956,-0.0606 -2.4564,-1.7985 -2.8142,-5.1517z"/>
   <polygon class="fil1" points="183.0899,64.6818 182.129,64.6818 179.0175,70.1901 178.5939,70.8495 178.5939,67.315 178.7147,66.2383 174.1642,64.7425 172.9045,66.8969 172.1897,67.9141 171.8267,68.3983 171.4102,68.8163 172.4262,69.1725 173.3831,69.5902 173.3831,87.7421 173.1467,89.8962 172.9045,90.7379 180.3908,92.771 183.3263,87.9839 183.508,87.3788 183.508,87.3238 183.387,87.082 182.3104,86.664 182.2497,86.664 182.0137,86.7246 181.832,87.3238 181.59,88.2204 178.5939,87.4996 178.4787,86.3006 178.5939,73.6641 179.1328,72.5257 179.7323,71.5097 180.0941,71.092 180.215,70.9101 180.3304,70.9101 180.3304,70.8495 180.3908,70.8495 180.5117,70.9101 181.8924,75.5823 181.8924,76.6602 181.832,77.0782 180.9904,78.7539 181.8924,79.5956 183.387,78.3363 184.707,76.5999 185.2459,75.1643 185.4823,74.0877 185.4823,73.4275 185.3048,72.6469 185.3048,72.108 183.9866,66.8969 "/>
   <path class="fil1" d="M162.5432 68.3381l-0.4176 0.1759 -3.1113 0.6586 0.4176 1.9195 0.1214 1.5548 0.0601 0.5996 0 13.6541 -0.4232 3.4739 8.2068 2.1548 1.379 0.2417 2.5737 -4.3143 0.5378 -1.3747 -0.4772 0 -0.2972 -0.1815 -0.3629 -0.1816 -0.3575 0 -0.4782 0.9016 -0.2421 0.5999 -4.9085 -1.1385 -0.0606 -2.9354 0.4181 -1.2582 0.6601 -1.0176 5.9847 -10.5423 -5.4474 -5.805 -0.7794 -0.7811 -2.7539 3.353 -0.2422 0.2426zm2.2152 2.6933l0 0 3.4136 3.7699 0 0.3024 -2.8141 5.4473 -0.5995 0.7815 0 -10.301z"/>
   <polygon class="fil1" points="151.4672,60.6689 151.2251,60.428 150.8676,60.2522 150.4501,60.7898 149.8506,61.2075 149.1903,61.45 148.7684,61.45 148.3502,61.3284 145.2939,59.2952 143.1998,61.6862 142.4793,62.2853 141.2201,62.8246 138.5871,63.5438 138.7083,63.9012 139.0658,65.4026 139.3079,67.9141 139.1263,72.8284 139.3079,73.0099 139.3079,73.2465 139.1263,73.4275 139.3079,73.6035 139.3079,73.9062 139.368,74.7462 139.3079,98.7021 141.2201,98.7021 141.2201,98.0427 141.6437,96.9645 142.3035,96.3064 142.7215,96.1249 143.1998,95.949 143.7982,95.7671 144.2764,95.7671 144.2764,64.4457 145.7779,65.0392 146.196,65.0392 146.6123,65.0999 147.1513,65.0999 147.8721,65.0392 148.6531,64.7425 149.8506,63.7856 150.2079,63.3635 150.5654,63.0061 151.2251,62.17 151.7038,61.3284 151.7641,61.0259 151.7641,60.9107 151.7038,60.7898 "/>
   <polygon class="fil1" points="151.4672,64.0221 151.2251,64.5008 149.8506,66.1777 147.5694,68.514 149.1298,68.7557 149.1298,87.4996 149.0694,88.1598 148.9498,89.2967 148.3502,91.3908 153.561,92.771 153.8582,92.771 154.2213,92.5293 154.2213,92.4686 156.0183,89.6545 156.5572,88.6975 154.2213,87.9839 154.2213,68.936 154.2818,68.936 154.2818,68.7557 156.2547,68.8163 156.8539,68.7557 157.0359,68.514 157.3326,68.0955 158.8329,64.7425 158.2934,64.6818 154.2818,64.6818 154.2213,61.3284 154.0396,60.7898 154.0396,60.3674 "/>
   <polygon class="fil1" points="132.9583,63.9012 133.2553,64.0221 136.3725,60.3674 133.7392,59.4105 132.4194,63.7856 "/>
   <polygon class="fil1" points="135.0536,68.514 135.8335,66.8362 130.5621,64.8634 127.8082,69.1725 130.1437,70.1901 130.1437,86.664 129.4248,91.3908 134.993,92.771 136.3117,90.7985 136.79,89.7147 137.1533,89.2967 137.3293,88.8183 135.0536,87.9839 135.0536,78.8752 134.993,78.8752 135.0536,78.8146 "/>
   <path class="fil1" d="M127.5055 87.2029l-0.8345 -0.1209 -0.4181 -0.1815 -0.4177 -0.176 -0.0609 0 0 0.2366 -0.4234 1.0778 -0.1152 0.1815 -0.5449 0 -0.774 -0.2421 -3.7164 -0.8964 -0.1157 -2.7539 0.1157 -0.5991 0.2425 -0.4787 0.8344 -1.44 0.4234 -0.4778 5.568 -10.0039 -6.1664 -6.4652 -2.337 2.8146 -0.4222 0.4176 -0.594 0.4185 -2.3358 0.598 -0.7816 0.0606 0.3635 1.7376 0.176 14.7324 -0.4177 4.914 8.5642 2.1543 0.84 0.0603 3.3475 -5.5681zm-7.4258 -16.2928l0 0 3.2382 3.4747 0.3573 0.3614 0.0603 0.2366 0 0.1815 -0.2417 0.2422 -2.6331 5.1501 -0.781 1.0176 0 -10.664z"/>
   <polygon class="fil1" points="111.2788,68.1566 111.8781,67.0787 105.4686,64.8634 101.2147,72.6469 101.1542,71.2735 101.2147,70.6133 101.2147,69.8327 101.5173,67.0787 95.1677,64.8634 91.391,71.3888 90.7368,72.2289 90.9127,68.514 91.0335,67.2603 91.3304,66.6603 89.9573,66.2383 88.8189,65.76 86.3011,64.8634 83.6681,68.5742 83.6681,68.8163 85.8233,69.8933 85.8233,87.082 85.4048,90.617 85.1627,91.5724 90.2542,92.8923 92.4146,88.879 90.7368,88.2204 90.7368,76.7208 90.6762,75.7639 90.7368,75.1643 90.7368,74.7462 90.9127,74.6857 91.0335,74.0877 91.4521,73.6641 93.7268,69.6508 94.3871,69.8327 96.1245,70.4319 96.3049,86.2404 96.1245,89.236 95.8885,90.5564 95.6463,90.7985 95.5255,91.1555 95.5255,91.3908 95.8885,91.5724 97.0257,92.0506 100.6148,92.8923 102.715,88.879 101.9336,88.4609 101.1542,88.2204 101.1542,77.797 101.0389,76.9023 101.0389,75.5221 101.1542,75.1643 101.3964,74.5045 102.2359,73.1858 102.6544,72.5859 104.2711,69.6508 106.0076,70.4319 105.9472,87.3238 105.6501,90.3745 105.4686,91.3908 111.0371,92.8923 113.1309,88.879 111.0371,88.039 110.8552,70.1901 111.0978,68.8163 "/>
   <polygon class="fil1" points="80.0123,64.7425 79.776,64.7425 79.413,64.8634 79.1778,65.0999 75.8247,71.3888 75.8247,68.7557 76.0006,67.6173 76.0006,66.8969 76.1821,66.5395 71.6902,64.8634 70.4324,67.0181 68.9366,68.8163 70.9108,69.6508 70.9108,88.4016 70.6139,90.1986 70.4324,90.9744 77.7373,92.8923 81.0904,87.3238 79.413,86.7246 78.9966,88.4016 78.0999,88.2204 75.8247,87.6205 75.7038,75.1036 75.8247,73.9062 76.0006,73.6035 76.0612,73.1858 76.4187,72.6469 76.5988,72.2289 77.6767,70.6736 77.9185,71.092 79.2383,75.5221 79.413,76.2421 79.413,76.9023 79.2383,77.3794 78.9966,77.9785 78.3365,78.8146 79.2383,79.8377 80.2547,79.0563 81.514,77.3794 82.3485,75.824 82.4694,74.9828 82.5902,73.3067 82.0529,69.8933 80.5515,64.8634 "/>
   <path class="fil1" d="M63.4228 65.5841l-0.8357 -0.5449 -2.2756 2.6989 -0.5993 0.6602 -0.7797 0.3574 -2.8146 0.5984 0.3577 1.0778 0.3024 2.8146 -0.0602 8.0859 0.0602 0.0603 -0.0602 0.1208 0 0.2968 0.0602 0.4185 -0.4177 7.4258 -0.2424 0.9625 9.5861 2.33 0.8963 -1.3746 2.3969 -4.2542 -1.5003 -0.4177 -0.2975 0.5991 -0.3571 0.957 -5.1501 -1.3747 -0.182 -2.7595 0.3578 -0.7755 0.4177 -0.9007 1.3188 -1.9139 5.332 -9.2227 -5.5139 -5.9256zm-0.2968 6.6448l0 0 2.2149 2.7539 -3.6546 6.7672 -0.176 -1.3751 0 -9.4649 1.6157 1.3188z"/>
   <path class="fil1" d="M53.4855 68.0955l-9.2245 -3.0563 -1.9178 2.2757 -0.5393 0.5991 -3.8925 1.6159 0.6 1.738 0 0.8401 0.0603 0.7204 0 14.3745 -0.3028 2.5118 -0.3575 1.2597 5.7501 1.5549 -1.2576 0.2417 -1.3208 0.6 -1.3124 1.0156 -2.6386 3.6562 -0.0607 0.1816 0.0607 0 0 0.1152 0.5377 0.1209 0.5992 0.3028 0.2425 -0.6602 0.2968 -0.4842 0.1812 -0.2362 0.3573 -0.2421 0.957 -0.4165 0.5433 0 0.4186 -0.1209 0.5385 0 1.8576 0.4165 3.0508 1.3199 2.578 -2.8146 0.3578 -0.1811 0.7201 -0.2968 2.4571 -0.6 -0.1209 -21.0196 -0.0606 -0.9019 0.1815 -2.8748 0.1154 -0.4181 0 -0.1208 0.1208 -0.2957 0.4241 -0.7208zm-4.8538 3.233l0 0 -1.1385 1.4999 0.2968 0.7751 0.182 1.6211 0 7.6033 -0.2362 0.9011 -2.5783 4.4309 -1.859 -0.4177 -0.176 -1.2601 0.176 -16.8312 5.3332 1.6777zm-0.8417 14.2533l0 0 0.182 1.797 -0.0602 6.1732 -3.1122 -0.7811 -0.9019 -0.0603 3.8923 -7.1289z"/>
   <polygon class="fil1" points="32.8222,59.5314 31.9201,62.0491 31.564,63.6647 31.8609,64.0221 31.9201,64.0823 32.2772,63.9012 32.5795,63.604 33.0586,63.1876 35.2732,60.428 "/>
   <polygon class="fil1" points="27.6715,63.9012 27.9078,63.604 28.2651,63.1876 30.6015,60.428 28.0892,59.5314 26.6485,63.9012 27.2485,64.0221 27.4294,64.0221 "/>
   <polygon class="fil1" points="12.8735,64.0221 10.9613,65.5841 10.1798,66.1218 10.1798,66.8969 10.3007,67.7381 10.3007,69.8327 10.3618,69.8933 10.3007,71.5097 6.5255,71.5097 6.4705,70.6736 4.5511,70.8495 4.6116,79.2988 5.8103,75.7639 6.0473,75.1036 6.4705,74.8013 6.9476,74.7462 10.5376,74.8013 10.5982,91.4515 10.5376,92.771 9.8774,92.1108 9.4004,91.3908 4.3094,85.2244 3.5354,84.5096 2.8146,83.3655 2.6937,83.2502 2.6937,81.5135 1.797,81.5135 1.6156,81.5741 1.3739,81.8102 1.0783,82.4704 0.4791,84.1466 -0,87.2029 -0,87.9839 0.2968,88.879 1.3131,90.7379 7.3656,98.3395 7.9049,98.7632 11.3788,95.8879 12.4555,95.1074 13.3577,94.6889 16.5294,93.7335 16.4686,77.9785 16.2877,77.0232 16.4686,76.5999 16.4686,76.3024 16.5294,76.3024 16.5294,76.2421 16.4686,76.1815 16.2877,75.824 16.2877,74.027 16.4686,73.3067 16.1719,66.6001 16.4686,64.3248 16.5899,63.5438 16.8867,63.0061 17.1894,62.764 17.3711,62.4062 18.5024,61.7467 18.4473,60.428 3.5354,60.428 3.2933,60.3674 3.2933,60.2522 3.2331,60.1915 3.1113,59.9498 3.1113,59.592 1.5553,59.592 1.5553,69.6508 3.2331,65.0392 7.7234,64.8634 "/>
   <path class="fil1" d="M35.2732 68.0955l-8.685 -3.0563 -1.7364 2.2211 -0.5939 0.6538 -0.4843 0.2425 -4.0727 1.8577 0.3028 0.6594 1.4341 1.5553 1.0777 0.781 0.8417 0.4177 -0.8417 0.4787 -2.8146 0.9007 0.6603 8.5036 -0.4177 7.0097 -0.2369 1.2522 6.2286 1.3802 3.352 -5.7497 0.0602 0.1209 -0.1811 4.3694 4.6735 1.2594 2.396 -3.7165 0.1812 -0.5385 -1.9782 -0.6586 0 -18.1457 0.2956 -0.9573 0.539 -0.8405zm-6.2873 4.7936l0 0 0.3614 0.1208 0.1759 10.8949 -0.1759 0.8409 -0.0602 0.3028 -1.9179 3.172 -1.797 -0.4783 -0.4185 0 -0.1209 -12.22 0.0607 -0.4185 0.181 -0.2968 3.7113 -1.9178zm2.0998 -1.6156l0 0 -0.2425 0.0603 -0.1816 0.176 -0.4177 0.1803 -1.4946 0.1209 -0.8416 0 -0.9571 -0.3012 -1.0156 -0.5996 -0.6606 -1.0168 -0.1208 -0.3582 5.9319 1.7384z"/>
  </g>
 </g>
</svg>
