<svg width="534.18" height="90.967" viewBox="0 0 534.18 90.967" xmlns="http://www.w3.org/2000/svg"><g id="svgGroup" stroke-linecap="round" fill-rule="evenodd" font-size="9pt" stroke="#c7a975" stroke-width="0.25mm" fill="#c7a975" style="stroke:#c7a975;stroke-width:0.25mm;fill:#c7a975"><path d="M 384.033 14.99 L 384.033 70.801 Q 384.033 74.951 382.471 78.613 A 20.528 20.528 0 0 1 378.223 85.01 A 19.72 19.72 0 0 1 371.826 89.355 A 19.645 19.645 0 0 1 363.916 90.967 A 19.183 19.183 0 0 1 356.104 89.355 Q 352.393 87.793 349.658 85.059 Q 346.875 82.324 345.264 78.662 A 19.301 19.301 0 0 1 343.652 70.801 L 343.652 14.99 L 347.021 14.99 L 347.021 70.801 Q 347.021 74.316 348.34 77.393 A 16.966 16.966 0 0 0 351.953 82.764 A 16.966 16.966 0 0 0 357.324 86.377 Q 360.4 87.695 363.916 87.695 A 16.046 16.046 0 0 0 370.508 86.328 Q 373.535 85.01 375.83 82.715 A 16.966 16.966 0 0 0 379.443 77.344 Q 380.762 74.268 380.762 70.801 L 380.762 14.99 L 384.033 14.99 Z M 204.59 90.186 L 201.807 90.186 A 18.895 18.895 0 0 0 200.439 83.105 Q 199.072 79.688 196.68 77.002 A 20.01 20.01 0 0 0 191.064 72.607 A 17.48 17.48 0 0 0 184.131 70.703 L 184.131 90.186 L 181.299 90.186 L 181.299 14.99 L 184.131 14.99 L 184.131 67.773 A 39.482 39.482 0 0 1 185.822 67.999 A 43.183 43.183 0 0 1 185.938 68.018 A 17.018 17.018 0 0 1 187.695 68.408 L 200.537 14.99 L 203.418 14.99 L 190.43 69.287 Q 193.604 70.459 196.24 72.607 A 22.857 22.857 0 0 1 200.684 77.539 Q 202.539 80.371 203.564 83.594 Q 204.59 86.865 204.59 90.186 Z M 336.426 90.186 L 333.643 90.186 A 18.895 18.895 0 0 0 332.275 83.105 Q 330.908 79.688 328.516 77.002 A 20.01 20.01 0 0 0 322.9 72.607 A 17.48 17.48 0 0 0 315.967 70.703 L 315.967 90.186 L 313.135 90.186 L 313.135 14.99 L 315.967 14.99 L 315.967 67.773 A 39.482 39.482 0 0 1 317.658 67.999 A 43.183 43.183 0 0 1 317.773 68.018 A 17.018 17.018 0 0 1 319.531 68.408 L 332.373 14.99 L 335.254 14.99 L 322.266 69.287 Q 325.439 70.459 328.076 72.607 A 22.857 22.857 0 0 1 332.52 77.539 Q 334.375 80.371 335.4 83.594 Q 336.426 86.865 336.426 90.186 Z M 155.908 14.99 L 155.908 70.801 A 19.427 19.427 0 0 1 154.535 78.111 A 18.763 18.763 0 0 1 154.346 78.564 A 19.938 19.938 0 0 1 150.098 84.912 Q 147.363 87.598 143.701 89.111 Q 140.039 90.674 135.889 90.674 Q 131.787 90.674 128.174 89.111 A 19.938 19.938 0 0 1 121.826 84.863 A 19.938 19.938 0 0 1 117.578 78.516 A 19.227 19.227 0 0 1 116.016 70.801 L 118.799 70.801 A 16.046 16.046 0 0 0 120.166 77.393 Q 121.484 80.518 123.828 82.861 A 16.993 16.993 0 0 0 129.297 86.523 A 16.046 16.046 0 0 0 135.889 87.891 A 16.731 16.731 0 0 0 142.578 86.523 Q 145.703 85.205 148.047 82.861 A 17.081 17.081 0 0 0 151.758 77.441 Q 153.125 74.365 153.125 70.801 L 153.125 14.99 L 155.908 14.99 Z M 52.539 39.941 L 53.76 48.975 Q 53.76 53.076 52.832 56.934 Q 51.855 60.791 50.098 64.307 Q 48.291 67.822 45.752 70.85 A 34.913 34.913 0 0 1 39.893 76.367 L 48.193 90.186 L 44.873 90.186 L 37.598 77.979 Q 33.789 80.273 29.639 81.543 Q 25.439 82.861 21.094 83.105 L 21.094 90.186 L 18.262 90.186 L 18.262 14.99 L 19.678 14.99 Q 24.365 14.99 28.76 16.211 A 35.406 35.406 0 0 1 36.914 19.629 A 34.835 34.835 0 0 1 43.799 24.902 Q 46.875 28.027 49.121 31.787 Q 51.318 35.596 52.539 39.941 Z M 443.799 39.941 L 445.02 48.975 Q 445.02 53.076 444.092 56.934 Q 443.115 60.791 441.357 64.307 Q 439.551 67.822 437.012 70.85 A 34.913 34.913 0 0 1 431.152 76.367 L 439.453 90.186 L 436.133 90.186 L 428.857 77.979 Q 425.049 80.273 420.898 81.543 Q 416.699 82.861 412.354 83.105 L 412.354 90.186 L 409.521 90.186 L 409.521 14.99 L 410.938 14.99 Q 415.625 14.99 420.02 16.211 A 35.406 35.406 0 0 1 428.174 19.629 A 34.835 34.835 0 0 1 435.059 24.902 Q 438.135 28.027 440.381 31.787 Q 442.578 35.596 443.799 39.941 Z M 16.162 90.186 L 4.395 90.186 L 4.395 17.676 L 0 17.676 L 0 14.99 L 16.162 14.99 L 16.162 90.186 Z M 407.422 90.186 L 395.654 90.186 L 395.654 17.676 L 391.26 17.676 L 391.26 14.99 L 407.422 14.99 L 407.422 90.186 Z M 179.102 90.186 L 167.725 90.186 L 167.725 17.676 L 163.135 17.676 L 163.135 14.99 L 179.102 14.99 L 179.102 90.186 Z M 310.938 90.186 L 299.561 90.186 L 299.561 17.676 L 294.971 17.676 L 294.971 14.99 L 310.938 14.99 L 310.938 90.186 Z M 465.82 90.186 L 454.443 90.186 L 454.443 17.676 L 449.854 17.676 L 449.854 14.99 L 465.82 14.99 L 465.82 90.186 Z M 95.166 90.186 L 92.188 90.186 L 89.795 82.764 L 63.867 82.764 L 61.475 90.186 L 58.496 90.186 L 60.986 82.764 L 56.104 82.764 L 56.104 80.078 L 61.914 80.078 L 76.904 35.693 L 95.166 90.186 Z M 250.879 90.186 L 247.9 90.186 L 245.508 82.764 L 219.58 82.764 L 217.188 90.186 L 214.209 90.186 L 216.699 82.764 L 211.816 82.764 L 211.816 80.078 L 217.627 80.078 L 232.617 35.693 L 250.879 90.186 Z M 519.531 90.186 L 516.553 90.186 L 514.16 82.764 L 488.232 82.764 L 485.84 90.186 L 482.861 90.186 L 485.352 82.764 L 480.469 82.764 L 480.469 80.078 L 486.279 80.078 L 501.27 35.693 L 519.531 90.186 Z M 109.814 90.186 L 98.193 90.186 L 78.076 32.178 L 83.887 15.283 L 109.814 90.186 Z M 265.527 90.186 L 253.906 90.186 L 233.789 32.178 L 239.6 15.283 L 265.527 90.186 Z M 534.18 90.186 L 522.559 90.186 L 502.441 32.178 L 508.252 15.283 L 534.18 90.186 Z M 150.879 14.99 L 150.879 70.166 A 17.113 17.113 0 0 1 150.433 73.552 A 14.669 14.669 0 0 1 149.902 75.293 A 16.224 16.224 0 0 1 147.828 79.228 A 15.18 15.18 0 0 1 147.559 79.59 Q 146.045 81.494 143.994 82.91 A 20.537 20.537 0 0 1 139.6 85.303 L 139.6 17.676 L 134.619 17.676 L 134.619 14.99 L 150.879 14.99 Z M 378.76 14.99 L 378.76 70.605 A 14.469 14.469 0 0 1 377.881 75.635 Q 377.002 78.027 375.439 79.98 A 15.475 15.475 0 0 1 371.729 83.398 A 14.284 14.284 0 0 1 367.041 85.4 L 367.041 14.99 L 378.76 14.99 Z M 48.584 60.791 L 50.879 48.975 A 31.599 31.599 0 0 0 49.854 40.918 A 32.921 32.921 0 0 0 46.875 33.594 A 31.528 31.528 0 0 0 42.285 27.393 Q 39.551 24.561 36.23 22.461 Q 32.91 20.41 29.102 19.189 Q 25.244 17.969 21.094 17.773 L 21.094 80.176 A 29.828 29.828 0 0 0 32.812 77.344 Q 38.232 74.805 42.285 70.557 A 31.282 31.282 0 0 0 48.584 60.791 Z M 439.844 60.791 L 442.139 48.975 A 31.599 31.599 0 0 0 441.113 40.918 A 32.921 32.921 0 0 0 438.135 33.594 A 31.528 31.528 0 0 0 433.545 27.393 Q 430.811 24.561 427.49 22.461 Q 424.17 20.41 420.361 19.189 Q 416.504 17.969 412.354 17.773 L 412.354 80.176 A 29.828 29.828 0 0 0 424.072 77.344 Q 429.492 74.805 433.545 70.557 A 31.282 31.282 0 0 0 439.844 60.791 Z M 470.85 90.186 L 468.018 90.186 L 468.018 14.99 L 470.85 14.99 L 470.85 90.186 Z M 88.77 80.078 L 76.807 44.58 L 64.893 80.078 L 88.77 80.078 Z M 244.482 80.078 L 232.52 44.58 L 220.605 80.078 L 244.482 80.078 Z M 513.135 80.078 L 501.172 44.58 L 489.258 80.078 L 513.135 80.078 Z M 372.656 0 L 359.57 13.184 L 357.471 13.184 L 366.65 0 L 372.656 0 Z" vector-effect="non-scaling-stroke"/></g></svg>